<svg width="24" height="24" viewBox="0 0 24 24" fill="none" xmlns="http://www.w3.org/2000/svg">
<path fill-rule="evenodd" clip-rule="evenodd" d="M11.6679 1.04508C10.8257 1.13884 10.0168 1.37444 9.22834 1.75565C7.66147 2.51314 6.49471 3.665 5.74522 5.19417C4.38506 7.96925 4.86912 10.9484 7.34299 15.0272C8.04682 16.1877 8.70253 17.1483 10.3526 19.4365C10.9058 20.2035 11.5196 21.0619 11.7166 21.3441C12.0919 21.8815 12.2339 22 12.5019 22C12.7699 22 12.9118 21.8815 13.2871 21.3441C13.4842 21.0619 14.0982 20.2035 14.6516 19.4365C16.2685 17.1952 16.9814 16.1498 17.6686 15.0123C19.8913 11.3331 20.478 8.65332 19.6275 6.0661C19.4693 5.58469 19.0388 4.72667 18.7215 4.26043C17.1865 2.00482 14.4112 0.739713 11.6679 1.04508ZM13.7321 2.35412C16.5714 2.94036 18.609 5.28244 18.7449 8.11597C18.8103 9.48013 18.3927 10.9897 17.4231 12.8944C16.66 14.3933 15.8169 15.6898 13.5861 18.7938C13.0012 19.6076 12.5133 20.2739 12.5019 20.2744C12.4904 20.2749 12.3744 20.1234 12.2442 19.9379C12.1139 19.7523 11.6007 19.0376 11.1038 18.3495C10.1202 16.9876 9.14152 15.5646 8.67793 14.8221C6.94571 12.048 6.17303 9.906 6.25885 8.11597C6.3664 5.87262 7.654 3.92147 9.7079 2.88954C10.3331 2.57544 11.0032 2.3727 11.7513 2.27143C12.1933 2.21158 13.2567 2.25596 13.7321 2.35412ZM11.7513 4.76768C10.3388 5.07235 9.24581 6.0928 8.86788 7.45971C8.79423 7.72611 8.77718 7.89973 8.77718 8.38258C8.77718 8.86542 8.79423 9.03904 8.86788 9.30544C9.23551 10.6352 10.2855 11.643 11.6541 11.9797C12.0842 12.0856 13.0005 12.0737 13.4401 11.9565C14.7612 11.6046 15.7762 10.6064 16.1359 9.30544C16.2095 9.03904 16.2266 8.86542 16.2266 8.38258C16.2266 7.89973 16.2095 7.72611 16.1359 7.45971C15.7754 6.15604 14.7488 5.1477 13.4401 4.8119C12.9563 4.68774 12.2123 4.66826 11.7513 4.76768ZM13.1025 6.0026C13.5736 6.12114 13.8935 6.30321 14.2547 6.65849C14.6159 7.01378 14.8011 7.32845 14.9216 7.79178C15.0724 8.37183 14.9935 9.00348 14.7026 9.54391C14.522 9.87947 14.0169 10.3772 13.6826 10.549C13.1281 10.8338 12.4892 10.9104 11.9012 10.7625C11.4371 10.6458 11.1114 10.4601 10.7486 10.1053C10.3872 9.75178 10.2035 9.43973 10.0822 8.97337C9.93184 8.39509 10.0097 7.76659 10.2993 7.22124C10.4741 6.89212 10.98 6.39558 11.3218 6.21761C11.8712 5.9316 12.5124 5.85416 13.1025 6.0026Z" fill="#09425A"/>
</svg>
