<svg width="62" height="62" viewBox="0 0 62 62" fill="none" xmlns="http://www.w3.org/2000/svg">
<path fill-rule="evenodd" clip-rule="evenodd" d="M28.9416 0.115239C25.7659 0.470097 22.706 1.71731 20.0422 3.74284C15.6465 7.08527 12.959 12.4619 12.959 17.9134V19.3377L12.1709 19.4685C9.98491 19.8311 8.26969 21.481 7.87424 23.6016C7.71659 24.447 7.71732 27.2732 7.87533 28.1134C8.37454 30.7677 10.9787 32.5672 13.9425 32.306C14.7533 32.2345 15.1944 31.9755 15.3715 31.467C15.4585 31.2173 15.5017 28.7889 15.5017 24.1514C15.5017 17.239 15.5511 16.1638 15.9469 14.4652C16.802 10.7949 19.1913 7.35553 22.3427 5.25862C25.0784 3.4384 27.7354 2.63233 31 2.63233C34.2646 2.63233 36.9216 3.4384 39.6573 5.25862C41.8513 6.71853 44.0665 9.28604 44.9864 11.4353C46.1782 14.2199 46.3666 15.1351 46.4789 18.6868L46.5588 21.2116L46.9543 21.5651C47.3105 21.8836 47.4328 21.9187 48.1894 21.9187C49.6107 21.9187 50.2103 22.108 50.8649 22.7633C51.6001 23.499 51.751 24.1461 51.6842 26.2754C51.642 27.6138 51.6005 27.8614 51.3375 28.3366C50.9699 29.0013 50.2158 29.5493 49.5454 29.6394L49.041 29.707V27.5189V25.3308L48.6684 24.9578C48.1584 24.4474 47.5119 24.44 46.9543 24.9383L46.5588 25.2917L46.485 29.6952C46.4076 34.3095 46.3646 34.7074 45.7691 36.3109C44.6253 39.3915 42.1146 41.9531 39.0862 43.1294C38.1378 43.4979 36.7483 43.7976 35.4726 43.9088L34.6782 43.9781L34.4751 43.5518C33.7651 42.0616 31.9627 41.1333 30.3672 41.4362C27.589 41.9635 26.2746 44.9785 27.798 47.3287C28.4964 48.4061 29.6709 49.0663 30.8896 49.0663C31.4061 49.0663 31.5588 49.0103 31.8569 48.712C32.0516 48.5171 32.2171 48.2309 32.2247 48.0757C32.2711 47.1394 32.0246 46.8266 31 46.5212C29.9754 46.2158 29.7289 45.903 29.7753 44.9666C29.7829 44.8115 29.9484 44.5252 30.1431 44.3303C30.417 44.0563 30.6072 43.9761 30.9839 43.9761C31.656 43.9761 32.0529 44.3475 32.2706 45.1803C32.3664 45.5464 32.5807 45.977 32.7531 46.1498C33.0413 46.4386 33.1551 46.4634 34.3624 46.4995C41.9241 46.7255 48.5132 40.8573 49.0033 33.4601C49.0855 32.2209 49.0101 32.3135 50.0524 32.1731C50.8416 32.0668 52.0272 31.4286 52.7136 30.7405C53.4383 30.0143 53.9444 29.072 54.1247 28.1134C54.2827 27.2732 54.2834 24.447 54.1258 23.6016C53.7303 21.481 52.0151 19.8311 49.8291 19.4685L49.041 19.3377V17.9134C49.041 12.4619 46.3535 7.08527 41.9578 3.74284C38.1631 0.857436 33.6237 -0.407716 28.9416 0.115239ZM28.3788 5.44393C22.8739 6.60158 18.7004 11.2602 18.1767 16.8317C18.1147 17.4903 18.0958 18.1545 18.1347 18.3075C18.3361 19.1015 19.0387 19.5038 19.7901 19.2556C20.4013 19.0537 20.5924 18.6626 20.7154 17.3612C20.8613 15.8165 21.1077 14.9134 21.7426 13.5962C23.0208 10.944 25.2857 9.02002 28.1546 8.14972C29.1258 7.8551 29.4353 7.8191 31 7.8191C32.5647 7.8191 32.8742 7.8551 33.8454 8.14972C36.7143 9.02002 38.9792 10.944 40.2574 13.5962C40.8923 14.9134 41.1387 15.8165 41.2846 17.3612C41.4076 18.6626 41.5987 19.0537 42.2099 19.2556C42.9613 19.5038 43.6639 19.1015 43.8653 18.3075C43.9041 18.1545 43.8853 17.4903 43.8233 16.8317C43.2961 11.2226 39.0988 6.56946 33.5446 5.43653C31.9904 5.11949 29.9072 5.12252 28.3788 5.44393ZM4.12014 7.87194C2.17704 8.25177 0.505647 9.96873 0.125455 11.9758C-0.0416364 12.8574 -0.0418786 49.1538 0.125091 50.0496C0.511701 52.1229 2.18915 53.7758 4.30406 54.1671C5.2336 54.3391 5.72966 54.2327 6.1107 53.7794C6.561 53.2438 6.53666 52.5945 6.0481 52.1055C5.84324 51.9004 5.57347 51.7325 5.44864 51.7325C5.32392 51.7325 4.93768 51.6716 4.5903 51.5971C3.69818 51.4054 2.87289 50.5794 2.68146 49.6864C2.48979 48.7916 2.48979 13.2249 2.68146 12.3301C2.78838 11.8313 2.93731 11.5776 3.38785 11.1265C4.17814 10.3356 4.50227 10.284 8.67591 10.284H12.1301L12.484 9.92971C13.1397 9.27344 12.9246 8.16196 12.0854 7.86915C11.6333 7.71136 4.92932 7.71378 4.12014 7.87194ZM49.828 7.90685C49.0582 8.2428 48.894 9.30713 49.516 9.92971L49.8699 10.284H53.3241C57.4977 10.284 57.8219 10.3356 58.6122 11.1265C59.0627 11.5776 59.2116 11.8313 59.3185 12.3301C59.5102 13.2249 59.5102 48.7916 59.3185 49.6864C59.1271 50.5794 58.3018 51.4054 57.4097 51.5971C56.9588 51.6938 51.1644 51.7325 37.1492 51.7325H17.5201L14.5805 54.6592L11.6411 57.5856L11.6038 55.0126L11.5666 52.4394L11.1711 52.0859C10.6136 51.5876 9.967 51.595 9.457 52.1055L9.08444 52.4784V56.8227V61.1672L9.3944 61.5359C9.77835 61.9925 10.3707 62.1284 10.8557 61.871C11.0469 61.7695 12.8648 60.0195 14.8956 57.9821L18.5878 54.2776H37.854C50.2894 54.2776 57.3484 54.2344 57.7636 54.1555C59.8209 53.765 61.4936 52.0944 61.8749 50.0496C62.0419 49.1538 62.0416 12.8574 61.8745 11.9758C61.4844 9.91662 59.8155 8.24231 57.7726 7.86067C56.768 7.67306 50.2775 7.71075 49.828 7.90685ZM12.959 25.8806V29.707L12.4546 29.6394C11.7842 29.5493 11.0301 29.0013 10.6625 28.3366C10.3995 27.8614 10.358 27.6138 10.3158 26.2754C10.2489 24.1426 10.3995 23.4995 11.1391 22.7593C11.5627 22.3352 11.8572 22.1521 12.2467 22.0703C12.5386 22.0089 12.8183 21.9802 12.8682 22.0065C12.9181 22.0327 12.959 23.7761 12.959 25.8806ZM24.5827 34.8865V36.2196H25.8541H27.1254V34.8865V33.5533H25.8541H24.5827V34.8865ZM29.7216 33.7097C29.6869 33.8003 29.6743 34.3885 29.6935 35.0168L29.7287 36.159H31H32.2713V34.8865V33.6139L31.0281 33.5794C30.0672 33.5526 29.7705 33.5822 29.7216 33.7097ZM34.8746 34.8865V36.2196H36.1459H37.4173V34.8865V33.5533H36.1459H34.8746V34.8865Z" fill="#09425A"/>
</svg>
