<svg width="53" height="53" viewBox="0 0 53 53" fill="none" xmlns="http://www.w3.org/2000/svg">
<path fill-rule="evenodd" clip-rule="evenodd" d="M45.2708 8.83325H30.9167V13.641C30.2294 14.4196 29.8125 15.4424 29.8125 16.5624V27.4972H16.9186C16.8337 27.4972 16.7493 27.4996 16.6655 27.5044L12.809 25.5055C12.1785 25.1788 11.4035 25.3707 10.9984 25.954C10.5939 26.5367 10.684 27.3289 11.2092 27.8057L13.1664 29.583C13.116 29.664 13.068 29.7468 13.0228 29.8314L7.72536 30.2729C7.1034 30.3246 6.625 30.8446 6.625 31.4687C6.625 32.0927 7.1034 32.6127 7.72536 32.6645L12.5019 33.0625V33.1873L7.72536 33.5854C7.1034 33.6371 6.625 34.1571 6.625 34.7812C6.625 35.4052 7.1034 35.9252 7.72536 35.977L12.5019 36.375V36.5122L8.82786 36.8796C8.20415 36.942 7.72917 37.4668 7.72917 38.0937C7.72917 38.7205 8.20415 39.2453 8.82786 39.3077L12.5019 39.6752V39.7499C12.5019 39.7913 12.5025 39.8326 12.5037 39.8738L9.92097 40.1751C9.30092 40.2475 8.83333 40.7727 8.83333 41.397C8.83333 42.029 9.31224 42.5583 9.94112 42.6211L13.9522 43.0222C14.7362 43.7333 15.7768 44.1666 16.9186 44.1666H41.9582C44.3975 44.1666 46.3749 42.1891 46.3749 39.7499V36.4642L46.375 36.4374V16.5624C46.375 15.4424 45.9581 14.4196 45.2708 13.641V8.83325ZM32.0208 16.5624C32.0208 15.3428 33.0095 14.3541 34.2292 14.3541H41.9583C42.6478 14.3541 43.2635 14.6701 43.6685 15.1651L32.0208 18.5405V16.5624ZM32.0208 20.8397V22.8309L44.1667 26.8794V17.3199L32.0208 20.8397ZM44.1024 29.1858C44.1237 29.193 44.1451 29.1994 44.1667 29.2051V36.4374L44.1666 36.4642V39.7499C44.1666 39.9477 44.1406 40.1395 44.0918 40.3219L32.0208 28.251V25.1587L44.1024 29.1858ZM30.3523 29.7055H26.4254L33.5281 41.9565L33.5291 41.9582H41.9582C42.1561 41.9582 42.3479 41.9322 42.5303 41.8834L30.3523 29.7055ZM30.9765 41.9582L23.8727 29.7055H18.6962L25.8 41.9582H30.9765ZM14.7103 31.9139C14.7103 30.9419 15.3383 30.1165 16.2107 29.8215L23.2473 41.9582H16.9186C15.6989 41.9582 14.7103 40.9696 14.7103 39.7499V31.9139Z" fill="#09425A"/>
</svg>
