<svg width="24" height="24" viewBox="0 0 24 24" fill="none" xmlns="http://www.w3.org/2000/svg">
<path fill-rule="evenodd" clip-rule="evenodd" d="M3.92422 4.06811C3.02564 4.26075 2.258 5.03556 2.06861 5.94101C1.97679 6.37996 1.97729 17.6317 2.06915 18.067C2.24169 18.8846 2.89772 19.6143 3.70715 19.8889L3.98677 19.9838L11.8776 19.9948C20.531 20.007 20.07 20.0194 20.6131 19.7593C21.2009 19.4778 21.6954 18.9146 21.8977 18.2962L22 17.9836V12.004V6.02435L21.905 5.7222C21.6513 4.91572 20.9077 4.24037 20.0819 4.06632C19.6569 3.97677 4.34236 3.97844 3.92422 4.06811ZM19.86 5.37984C20.1245 5.45326 20.3974 5.67107 20.5364 5.91988C20.6514 6.12569 20.6656 6.19078 20.6773 6.56577L20.6902 6.98276L16.353 9.76344L12.0157 12.5441L7.67673 9.76344L3.33775 6.98276L3.35022 6.56577C3.36143 6.19024 3.3754 6.12598 3.49057 5.91988C3.62475 5.67982 3.90129 5.4536 4.14793 5.38217C4.33686 5.32746 19.663 5.32517 19.86 5.37984ZM7.58562 11.2852L11.7842 13.9833H12.0146H12.245L16.445 11.2852C18.7549 9.8012 20.6546 8.58706 20.6664 8.58706C20.6783 8.58706 20.6829 10.6732 20.6768 13.2228L20.6657 17.8586L20.5735 18.0309C20.4561 18.2502 20.2653 18.4409 20.0458 18.5582L19.8734 18.6504L12.1029 18.6612C6.89849 18.6685 4.28011 18.658 4.1739 18.6294C3.90633 18.5574 3.63113 18.3395 3.4899 18.0878L3.36131 17.8586L3.35017 13.2228C3.34405 10.6732 3.34984 8.58706 3.36306 8.58706C3.37628 8.58706 5.27642 9.8012 7.58562 11.2852Z" fill="#09425A"/>
</svg>
