<svg width="24" height="24" viewBox="0 0 24 24" fill="none" xmlns="http://www.w3.org/2000/svg">
<path fill-rule="evenodd" clip-rule="evenodd" d="M13.7969 2.02221C13.5396 2.0568 12.9405 2.21794 12.659 2.32829C11.2001 2.90012 10.2505 4.04364 9.87132 5.6854C9.80403 5.97683 9.78896 6.20154 9.76886 7.21591L9.74527 8.40484L8.68503 8.42342C7.7895 8.43909 7.60684 8.45165 7.50922 8.50415C7.33242 8.59926 7.08618 8.88201 7.04093 9.04184C7.01496 9.13369 7.00034 9.77894 7.00023 10.8404L7 12.4957L7.09807 12.6889C7.15203 12.7951 7.25851 12.9326 7.33473 12.9945C7.57749 13.1915 7.74183 13.2163 8.80551 13.2163H9.7642V16.7656C9.7642 20.6811 9.75068 20.4573 10.0028 20.7153C10.0694 20.7835 10.1921 20.8755 10.2754 20.9197C10.4247 20.9988 10.4533 21 12.2444 21C14.0424 21 14.0636 20.9991 14.217 20.9186C14.3975 20.8238 14.5983 20.6117 14.6725 20.4373C14.7155 20.3365 14.7246 19.6934 14.7246 16.768V13.2209L15.9647 13.2093C17.1492 13.1982 17.2116 13.1941 17.3568 13.1178C17.5499 13.0163 17.7016 12.8675 17.805 12.678C17.8841 12.5332 17.8867 12.4831 17.8986 10.9313C17.9069 9.84225 17.8972 9.27246 17.8681 9.14138C17.8131 8.8936 17.6524 8.67833 17.4241 8.54665L17.2427 8.44199L15.9931 8.42342L14.7435 8.40484L14.7454 7.69891C14.7464 7.31066 14.76 6.93016 14.7756 6.85337C14.8284 6.59292 14.8568 6.5869 16.1428 6.56438C17.1179 6.54729 17.3022 6.53511 17.432 6.47889C17.6217 6.39682 17.8117 6.22015 17.9181 6.02699C17.9985 5.88116 18 5.84824 18 4.26218C18 2.66557 17.999 2.64413 17.9163 2.4924C17.811 2.29927 17.6461 2.13605 17.4763 2.05699C17.3597 2.00267 17.1515 1.99643 15.6277 2.00137C14.6832 2.00442 13.8594 2.01382 13.7969 2.02221ZM16.874 4.25289L16.864 5.43253L15.8417 5.45419C15.0334 5.47128 14.7784 5.48889 14.6242 5.53812C14.2059 5.67173 13.8502 6.00957 13.7239 6.39337C13.6234 6.69881 13.5817 7.28751 13.5951 8.2119C13.6084 9.12611 13.6218 9.19856 13.8094 9.36515C13.9853 9.52135 14.1149 9.53469 15.4725 9.5364L16.7694 9.53803V10.8198V12.1016H15.4208C14.1308 12.1016 14.0663 12.105 13.9339 12.1779C13.8579 12.2199 13.7533 12.3148 13.7016 12.3888L13.6076 12.5235L13.5972 16.2137L13.5869 19.904H12.2444H10.902L10.8916 16.2137L10.8812 12.5235L10.7872 12.3888C10.7355 12.3148 10.6309 12.2199 10.5549 12.1779C10.4239 12.1057 10.3562 12.1016 9.27626 12.1016H8.13597V10.8198V9.53803L9.22461 9.5364C10.3617 9.53469 10.5078 9.51749 10.6794 9.36515C10.8778 9.18893 10.8792 9.17786 10.9043 7.58745C10.9271 6.14399 10.9306 6.09116 11.0252 5.74834C11.1854 5.16807 11.3647 4.79664 11.6847 4.38275C12.1588 3.7693 12.9065 3.33285 13.7638 3.169C14.1969 3.08626 14.2087 3.08571 15.6055 3.0792L16.884 3.07326L16.874 4.25289Z" fill="white"/>
</svg>
