<svg width="69" height="61" viewBox="0 0 69 61" fill="none" xmlns="http://www.w3.org/2000/svg">
<path fill-rule="evenodd" clip-rule="evenodd" d="M18.3837 11.0915C8.44297 18.0126 2.24258 22.4133 1.86296 22.8171C-0.740701 25.5866 -0.598293 29.8947 2.18391 32.528C3.74001 34.0008 6.00141 34.7629 7.91474 34.4592L8.74154 34.3278V45.6701V57.0123H6.51642H4.2913V59.0061V61H34.499H64.7066V59.0061V57.0123H62.4815H60.2564V45.6675V34.3226L61.0224 34.4526C63.0096 34.7901 65.4469 33.9378 66.9726 32.3717C69.7124 29.5593 69.6703 25.2568 66.8769 22.6047C65.9433 21.7184 34.7664 -0.0225795 34.4612 1.76029e-05C34.3707 0.00666381 27.1359 4.99783 18.3837 11.0915ZM49.3885 15.1326C65.6061 26.4142 64.7765 25.7662 64.9346 27.2747C65.0594 28.468 64.4131 29.6189 63.2907 30.2017C62.5862 30.5675 61.3265 30.584 60.661 30.2359C60.4014 30.1002 54.4389 25.9903 47.411 21.1029C40.3831 16.2156 34.5756 12.2168 34.5053 12.2168C34.4351 12.2168 28.6854 16.1765 21.7281 21.0161C14.7709 25.8558 8.8056 29.9674 8.47183 30.1532C7.35603 30.7744 5.74383 30.5302 4.87105 29.608C4.30627 29.0111 3.98073 28.0643 4.06475 27.2625C4.22104 25.7696 3.4761 26.3513 19.6649 15.0807C27.7865 9.4262 34.4676 4.80882 34.5117 4.81972C34.5558 4.83062 41.2503 9.4714 49.3885 15.1326ZM45.3975 24.5788L56.2045 32.089L56.2076 44.5506L56.2107 57.0123H34.499H12.7872L12.7909 44.5506L12.7945 32.089L19.4063 27.5031C23.043 24.9809 27.9113 21.5921 30.225 19.9724C32.5386 18.3527 34.4673 17.0368 34.511 17.0481C34.5547 17.0594 39.4537 20.4481 45.3975 24.5788ZM28.2282 29.9026C25.3931 30.2641 22.9 32.524 22.2239 35.3456C22.1276 35.7477 22.0562 36.645 22.0653 37.3395C22.103 40.2008 23.3513 42.9655 25.5529 45.0641C26.7008 46.1582 34.3382 52.4928 34.5096 52.4928C34.6805 52.4928 42.2943 46.1639 43.445 45.0654C45.437 43.1638 46.5951 40.8432 46.8909 38.1606C47.1499 35.8111 46.5576 33.8142 45.1354 32.2414C42.8622 29.7273 39.1813 29.1176 36.1847 30.7587C35.7396 31.0025 35.2284 31.3566 35.0486 31.5457C34.6187 31.9979 34.4311 31.9801 33.8122 31.429C32.496 30.257 30.2547 29.6444 28.2282 29.9026ZM30.5882 34.1048C30.8478 34.2102 31.2347 34.4577 31.448 34.6548C31.888 35.0614 32.4729 36.193 32.4748 36.6416C32.4761 36.9385 32.4915 36.9407 34.499 36.9407C36.5059 36.9407 36.5218 36.9383 36.5248 36.6416C36.5291 36.2088 37.0188 35.207 37.44 34.7689C38.9016 33.2489 41.48 33.6134 42.5141 35.4864C43.3262 36.9571 42.8661 39.3978 41.4035 41.3767C41.0005 41.9219 34.7359 47.3088 34.5048 47.3088C34.4626 47.3088 32.9723 46.0973 31.1933 44.6167C28.704 42.5449 27.829 41.7344 27.3969 41.0994C26.009 39.0597 25.6841 36.6153 26.6165 35.2268C27.4865 33.931 29.0628 33.4856 30.5882 34.1048Z" fill="#09425A"/>
</svg>
