<svg width="24" height="24" viewBox="0 0 24 24" fill="none" xmlns="http://www.w3.org/2000/svg">
<path fill-rule="evenodd" clip-rule="evenodd" d="M6.7603 2.03986C6.1052 2.11499 5.33812 2.36878 4.75164 2.70446C3.23568 3.57206 2.23539 5.08942 2.04327 6.81267C1.98558 7.33029 1.98558 16.6637 2.04327 17.1813C2.3233 19.6932 4.30615 21.6766 6.81725 21.9567C7.33471 22.0144 16.6653 22.0144 17.1828 21.9567C19.6938 21.6766 21.6767 19.6932 21.9567 17.1813C22.0144 16.6637 22.0144 7.33029 21.9567 6.81267C21.6767 4.30082 19.6938 2.31737 17.1828 2.03725C16.7231 1.98599 7.2093 1.98837 6.7603 2.03986ZM17.588 3.29069C18.3997 3.51459 19.0248 3.86996 19.5747 4.42001C20.1243 4.96979 20.4792 5.59431 20.7039 6.40725L20.8074 6.78129V11.997V17.2127L20.7039 17.5867C20.4792 18.3997 20.1243 19.0242 19.5747 19.574C19.0251 20.1237 18.4007 20.4787 17.588 20.7035L17.2141 20.807H12H6.78588L6.41195 20.7035C5.59925 20.4787 4.97493 20.1237 4.42532 19.574C3.8757 19.0242 3.52079 18.3997 3.29606 17.5867L3.19264 17.2127V11.997V6.78129L3.29606 6.40725C3.52052 5.59532 3.8757 4.96975 4.42317 4.42212C5.07167 3.77343 5.92721 3.34171 6.82494 3.21017C6.95383 3.1913 9.34412 3.17849 12.1367 3.18169L17.2141 3.18755L17.588 3.29069ZM17.4094 4.60184C16.4583 4.73299 15.8072 5.66018 16.0369 6.55665C16.2003 7.19511 16.6032 7.59951 17.2377 7.76212C18.3103 8.03701 19.3658 7.0629 19.1869 5.96327C19.0873 5.35079 18.64 4.83661 18.0538 4.66076C17.8834 4.60965 17.5643 4.58047 17.4094 4.60184ZM17.8474 5.84829C18.0571 5.97909 18.0918 6.30587 17.9156 6.48984C17.7744 6.63733 17.596 6.6719 17.4162 6.58658C17.1431 6.45695 17.0844 6.0988 17.3025 5.89334C17.4648 5.74046 17.65 5.72515 17.8474 5.84829ZM11.2473 6.58744C9.08662 6.88201 7.2639 8.50919 6.71203 10.6362C6.22764 12.5029 6.76971 14.4691 8.14917 15.849C10.2987 17.9991 13.7013 17.9991 15.8508 15.849C18.0003 13.6989 18.0003 10.2934 15.8508 8.14542C14.6171 6.91257 12.9646 6.3533 11.2473 6.58744ZM12.6249 7.75614C13.562 7.89827 14.3601 8.30103 15.0275 8.9686C16.7084 10.65 16.7084 13.3439 15.0275 15.0254C13.3465 16.7068 10.6535 16.7068 8.97253 15.0254C7.29159 13.3439 7.29159 10.65 8.97253 8.9686C9.94447 7.99634 11.2817 7.55244 12.6249 7.75614Z" fill="#09425A"/>
</svg>
