<svg width="48" height="48" viewBox="0 0 48 48" fill="none" xmlns="http://www.w3.org/2000/svg">
<path fill-rule="evenodd" clip-rule="evenodd" d="M33.0012 14.4143L34.2941 15.7072L35.7083 14.293L31.7083 10.293L30.2941 11.7072L31.587 13.0001L28.5012 16.0859L25.7083 13.293L24.2941 14.7072L25.587 16.0001L19.7083 21.8788C18.7529 22.8342 18.5766 24.2737 19.1795 25.4077L17.8696 26.7176L15.7047 24.2641L8.32812 32.029L12.4518 34.9155C13.4603 35.6215 14.6615 36.0001 15.8925 36.0001H31.0012C31.0012 37.1047 31.8966 38.0001 33.0012 38.0001H42.0012C43.1058 38.0001 44.0012 37.1047 44.0012 36.0001V30.0001C44.0012 28.8955 43.1058 28.0001 42.0012 28.0001H41.5012V34.0001H38.5012C36.8443 34.0001 35.5012 32.657 35.5012 31.0001V29.5001H37.5012V31.0001C37.5012 31.5524 37.9489 32.0001 38.5012 32.0001H39.5012V28.0001C39.5012 26.8955 38.6058 26.0001 37.5012 26.0001H34.0012L31.0012 28.0001H21.5368L17.5368 32.0001L15.4154 32.0002L20.5937 26.8219C21.7277 27.4247 23.1671 27.2484 24.1225 26.293L30.0012 20.4143L31.2941 21.7072L32.7083 20.293L29.9154 17.5001L33.0012 14.4143ZM23.9798 20.4358L27.0012 17.4143L28.587 19.0001L25.5656 22.0215L23.9798 20.4358ZM16.4761 33.0609L16.4153 33.0001H16.5368L16.4761 33.0609Z" fill="#09425A"/>
<path d="M4 11L14.3751 22.7585L6.67008 30.8691L4 29V11Z" fill="#09425A"/>
</svg>
