<svg width="48" height="56" viewBox="0 0 48 56" fill="none" xmlns="http://www.w3.org/2000/svg">
<path fill-rule="evenodd" clip-rule="evenodd" d="M12.6428 0.221714C12.1823 0.465527 11.7963 1.11088 11.7963 1.6369C11.7963 2.1616 12.1595 2.75861 12.6452 3.03239C13.0201 3.24361 13.2407 3.27762 14.2379 3.27762H15.3956V11.0939V18.9101L7.92556 33.8995C3.81706 42.1436 0.352964 49.1944 0.227423 49.5678C-0.209516 50.8687 -0.00446218 52.543 0.736022 53.7193C1.11188 54.3165 1.88018 55.0355 2.50941 55.3789C3.71116 56.0349 2.49294 55.9997 24.0122 55.9997C41.3559 55.9997 43.785 55.9796 44.3502 55.832C45.8026 55.4526 46.9086 54.5324 47.5565 53.1642C47.9028 52.4328 47.9525 52.2183 47.9888 51.2976C48.0222 50.4528 47.9869 50.1293 47.8009 49.5774C47.675 49.2036 44.2097 42.1491 40.1004 33.9008L32.6289 18.904V11.0909V3.27762H33.7785C34.7154 3.27762 35.0077 3.23682 35.3585 3.05744C35.8424 2.8098 36.2282 2.17965 36.2282 1.6369C36.2282 1.09414 35.8424 0.463995 35.3585 0.216355C34.9354 -0.000111864 34.7421 -0.00372147 23.9893 0.00098195C13.3139 0.00568537 13.0408 0.0110451 12.6428 0.221714ZM29.3567 11.4774V19.6772L32.0835 25.1518C33.5832 28.1629 34.8103 30.6503 34.8103 30.6794C34.8103 30.7086 33.4729 30.7299 31.8381 30.727L28.8659 30.7215L28.5459 30.0434C27.7743 28.4082 25.8777 27.2322 24.0122 27.2322C22.1531 27.2322 20.2436 28.4161 19.4777 30.0434L19.1586 30.7215L16.1864 30.727C14.5516 30.7299 13.2142 30.7086 13.2142 30.6794C13.2142 30.6503 14.4412 28.1629 15.941 25.1518L18.6678 19.6772V11.4774V3.27762H24.0122H29.3567V11.4774ZM24.8231 30.7308C25.6276 31.1248 26.043 32.1067 25.7639 32.9548C25.5987 33.4572 24.8958 34.0908 24.4005 34.184C23.7402 34.3082 23.2434 34.1467 22.7435 33.6455C22.0116 32.9113 21.9653 31.9599 22.625 31.2064C23.2406 30.5033 24.0158 30.3355 24.8231 30.7308ZM19.4777 34.703C20.4514 36.7719 23.0015 37.9371 25.2627 37.3465C26.6667 36.9797 27.9654 35.9296 28.5535 34.6856L28.8659 34.0249L32.6878 34.0194L36.5095 34.0139L40.6249 42.2996C44.2633 49.6249 44.74 50.6436 44.7381 51.0886C44.7352 51.7051 44.3998 52.2552 43.861 52.5266C43.5039 52.7066 42.3303 52.7179 24.0122 52.7179C5.69418 52.7179 4.52057 52.7066 4.16347 52.5266C3.62423 52.255 3.28916 51.7051 3.28698 51.0886C3.28556 50.6441 3.76657 49.616 7.39962 42.2996L11.5139 34.0139L15.3363 34.0194L19.1586 34.0249L19.4777 34.703ZM15.714 38.8085C11.9354 39.7977 10.6541 44.5876 13.4247 47.3662C15.4119 49.3591 18.6515 49.3591 20.6387 47.3662C22.6293 45.3698 22.6293 42.128 20.6387 40.1316C19.3329 38.822 17.5213 38.3354 15.714 38.8085ZM28.4581 38.8335C27.9976 39.0773 27.6116 39.7227 27.6116 40.2487C27.6116 40.7914 27.9974 41.4216 28.4813 41.6692C28.718 41.7903 29.0629 41.8894 29.2477 41.8894C29.4324 41.8894 29.7773 41.7903 30.014 41.6692C30.4979 41.4216 30.8837 40.7914 30.8837 40.2487C30.8837 39.7059 30.4979 39.0758 30.014 38.8281C29.4766 38.5533 28.9844 38.5549 28.4581 38.8335ZM17.8425 42.1065C18.647 42.5005 19.0625 43.4824 18.7834 44.3305C18.6181 44.8329 17.9153 45.4665 17.42 45.5597C16.7597 45.6839 16.2628 45.5224 15.763 45.0212C15.031 44.2871 14.9848 43.3357 15.6444 42.5821C16.26 41.879 17.0353 41.7112 17.8425 42.1065ZM33.6935 42.3337C33.233 42.5775 32.847 43.2229 32.847 43.7489C32.847 43.9342 32.9458 44.2801 33.0666 44.5174C33.3135 45.0027 33.9419 45.3896 34.4831 45.3896C35.0243 45.3896 35.6526 45.0027 35.8996 44.5174C36.1836 43.9589 36.1751 43.4702 35.872 42.9399C35.424 42.1564 34.5093 41.9019 33.6935 42.3337ZM26.713 45.8339C26.2525 46.0778 25.8665 46.7231 25.8665 47.2491C25.8665 47.7919 26.2522 48.422 26.7362 48.6697C26.9729 48.7907 27.3178 48.8898 27.5025 48.8898C27.6873 48.8898 28.0322 48.7907 28.2689 48.6697C28.7528 48.422 29.1386 47.7919 29.1386 47.2491C29.1386 46.7064 28.7528 46.0762 28.2689 45.8286C27.7315 45.5537 27.2392 45.5553 26.713 45.8339Z" fill="#09425A"/>
</svg>
