<svg width="40" height="41" viewBox="0 0 40 41" fill="none" xmlns="http://www.w3.org/2000/svg">
<path d="M3.64821 8.01915C1.57277 8.01915 -0.0309916 6.37266 0.00045459 4.2742C0.00045459 2.17573 1.63566 0.561523 3.71111 0.561523C5.78655 0.561523 7.39031 2.17573 7.42176 4.2742C7.42176 6.40495 5.78656 8.01915 3.64821 8.01915Z" fill="#09425A"/>
<path d="M25.3787 8.01915C23.3032 8.01915 21.6995 6.37266 21.7309 4.2742C21.7309 2.17573 23.3661 0.561523 25.4416 0.561523C27.517 0.561523 29.1208 2.17573 29.1522 4.2742C29.1208 6.40495 27.4856 8.01915 25.3787 8.01915Z" fill="#36A693"/>
<path d="M36.2263 8.01915C34.1509 8.01915 32.5471 6.37266 32.5786 4.2742C32.5786 2.17573 34.2138 0.561523 36.2892 0.561523C38.3647 0.561523 39.9684 2.17573 39.9999 4.2742C39.9684 6.40495 38.3332 8.01915 36.2263 8.01915Z" fill="#36A693"/>
<path d="M14.5586 0.561523C13.6466 0.561523 12.829 0.85208 12.2001 1.36863C12.2001 1.36863 12.2001 1.33634 12.2315 1.33634C11.4768 1.91746 10.9737 2.82141 10.8165 3.98364C10.6592 5.0813 10.6278 6.21124 10.1246 7.24433C8.83535 9.89163 6.72845 11.183 3.89829 11.3444C3.8354 11.3444 3.80396 11.3444 3.74106 11.3444C4.36999 13.0878 3.58383 15.1862 2.04297 16.2193C2.29454 16.6067 2.51466 17.0264 2.609 17.4461C2.64045 17.5107 2.64045 17.6075 2.64045 17.6721C2.70334 17.6721 2.79768 17.6721 2.86057 17.6721C3.39516 16.3162 4.55867 15.2508 6.41399 15.2508C6.72845 15.2508 7.04291 15.2831 7.32593 15.3476C7.32593 15.2831 7.35738 15.1862 7.35738 15.1217C7.35738 15.0248 7.35738 14.8957 7.35738 14.7988C7.35738 14.7665 7.35738 14.7342 7.35738 14.6697C7.54606 11.0216 11.068 8.24514 14.4013 8.01915C14.4328 8.01915 14.4328 8.01915 14.4642 8.01915C16.6026 8.01915 18.2063 6.40495 18.2063 4.2742C18.2378 2.17573 16.634 0.561523 14.5586 0.561523Z" fill="#09425A"/>
<path d="M18.2384 26.0985C18.2384 25.1623 17.9239 24.3229 17.3893 23.7095C17.3893 23.7095 17.4208 23.7095 17.4208 23.7418C16.8233 22.9669 15.9428 22.4827 14.8107 22.3535C13.7416 22.2244 12.6409 22.1921 11.6032 21.7079C9.02463 20.4488 7.70389 18.2857 7.51521 15.3802C7.51521 15.3156 7.51521 15.2833 7.48377 15.2188C5.78567 15.8967 3.74167 15.1219 2.73539 13.5723C2.35804 13.8305 1.94924 14.0565 1.54043 14.1857C1.47754 14.2179 1.3832 14.2179 1.32031 14.2502C1.32031 14.3148 1.32031 14.4117 1.35176 14.4762C2.6725 14.9928 3.74167 16.1873 3.77311 18.092C3.77311 18.4149 2.64105 18.2535 2.57816 18.544C2.64105 18.544 3.14419 18.8669 3.20708 18.8669C3.30142 18.8669 4.11902 19.0283 4.21336 19.0283C4.24481 19.0283 4.27625 19.0283 4.33915 19.0283C7.89257 19.1574 10.6598 22.741 10.9428 26.1631C10.9428 26.1953 10.9428 26.1953 10.9428 26.2276C10.9743 28.423 12.578 30.0372 14.6535 30.0049C16.7289 29.908 18.2698 28.2292 18.2384 26.0985Z" fill="#09425A"/>
<path d="M14.4959 18.8668C12.4204 18.8668 10.8167 17.2203 10.8481 15.1219C10.8481 13.0234 12.4833 11.4092 14.5588 11.4092C16.6342 11.4092 18.238 13.0234 18.2694 15.1219C18.2694 17.2526 16.6342 18.8668 14.4959 18.8668Z" fill="#09425A"/>
<path d="M14.4959 29.8434C12.4204 29.8434 10.8167 28.1969 10.8481 26.0984C10.8481 23.9999 12.4833 22.3857 14.5588 22.3857C16.6342 22.3857 18.238 23.9999 18.2694 26.0984C18.2694 28.2292 16.6342 29.8434 14.4959 29.8434Z" fill="#09425A"/>
<path d="M3.80446 18.8668C1.72902 18.8668 0.125258 17.2203 0.156705 15.1219C0.156705 13.0234 1.72901 11.4415 3.77302 11.4092C3.80446 11.4092 3.83591 11.4092 3.86736 11.4092C5.9428 11.4092 7.54656 13.0234 7.57801 15.1219C7.57801 17.2526 5.94281 18.8668 3.80446 18.8668Z" fill="#09425A"/>
<path d="M25.3787 18.8668C23.3032 18.8668 21.6995 17.2203 21.7309 15.1219C21.7309 13.0234 23.3661 11.4092 25.4416 11.4092C27.517 11.4092 29.1208 13.0234 29.1522 15.1219C29.1208 17.2526 27.4856 18.8668 25.3787 18.8668Z" fill="#36A693"/>
<path d="M3.64821 29.7135C1.57277 29.7135 -0.0309916 28.067 0.00045459 25.9685C0.00045459 23.8701 1.63566 22.2559 3.71111 22.2559C5.78655 22.2559 7.39031 23.8701 7.42176 25.9685C7.42176 28.0993 5.78656 29.7135 3.64821 29.7135Z" fill="#09425A"/>
<path d="M36.2263 29.7135C34.1509 29.7135 32.5471 28.067 32.5786 25.9685C32.5786 23.8701 34.2138 22.2559 36.2892 22.2559C38.3647 22.2559 39.9684 23.8701 39.9999 25.9685C39.9684 28.0993 38.3332 29.7135 36.2263 29.7135Z" fill="#36A693"/>
<path d="M14.4959 40.5611C12.4204 40.5611 10.8167 38.9147 10.8481 36.8162C10.8481 34.7177 12.4833 33.1035 14.5588 33.1035C16.6342 33.1035 18.238 34.7177 18.2694 36.8162C18.2694 38.9469 16.6342 40.5611 14.4959 40.5611Z" fill="#09425A"/>
<path d="M3.80446 40.5611C1.72902 40.5611 0.125258 38.9147 0.156705 36.8162C0.156705 34.7177 1.79191 33.1035 3.86736 33.1035C5.9428 33.1035 7.54656 34.7177 7.57801 36.8162C7.57801 38.9469 5.94281 40.5611 3.80446 40.5611Z" fill="#09425A"/>
<path d="M25.3787 40.5611C23.3032 40.5611 21.6995 38.9147 21.7309 36.8162C21.7309 34.7177 23.3661 33.1035 25.4416 33.1035C27.517 33.1035 29.1208 34.7177 29.1522 36.8162C29.1208 38.9469 27.4856 40.5611 25.3787 40.5611Z" fill="#36A693"/>
<path d="M36.1334 32.8458C36.0391 32.8458 35.9133 32.8458 35.819 32.8781C35.7875 32.8781 35.7561 32.8781 35.6932 32.8781C32.2655 32.8135 29.5612 29.5206 29.0266 26.2276C29.0266 26.1307 29.058 26.0662 29.058 25.9693C29.058 25.8725 29.058 25.7433 29.058 25.6465C29.058 25.6142 29.058 25.5819 29.058 25.5173C29.2467 21.8692 32.7687 19.0928 36.102 18.8668C36.1334 18.8668 36.1334 18.8668 36.1649 18.8668C38.3032 18.8668 39.907 17.2526 39.907 15.1219C39.907 13.0234 38.3032 11.4092 36.1963 11.4092C35.9447 11.4092 35.7246 11.4415 35.473 11.4737C35.4101 11.4737 35.3158 11.506 35.2529 11.5383C35.0957 11.5706 34.9699 11.6029 34.8127 11.6675C34.7183 11.6997 34.6554 11.732 34.5611 11.7643C34.4353 11.8289 34.3095 11.8934 34.1837 11.958C34.1209 11.9903 34.0265 12.0549 33.9636 12.1194C33.9007 12.1517 33.8693 12.184 33.8064 12.2163C33.8064 12.2163 33.8064 12.184 33.8378 12.184C33.7435 12.2486 33.6806 12.3454 33.5863 12.4423L33.5548 12.4746C32.9888 13.0557 32.58 13.8305 32.4542 14.8313C32.297 15.929 32.2655 17.0589 31.7624 18.092C30.5674 20.5456 28.6492 21.8369 26.0706 22.1275C25.7876 22.0629 25.5046 22.0306 25.1901 22.0306C23.4606 22.0952 22.1084 23.322 21.7625 25.0008C21.7625 25.0654 21.7311 25.1299 21.6996 25.1945C21.6367 25.4528 21.6367 25.6788 21.6367 25.937C21.6367 27.0024 22.0141 27.9386 22.6744 28.6166C23.3034 29.2623 24.1524 29.6497 25.0958 29.682C25.0958 29.682 25.0958 29.682 25.1272 29.682C26.1964 29.8111 27.297 29.8111 28.3348 30.2954C30.9133 31.5222 32.2655 33.6206 32.5171 36.4939C32.5171 36.5908 32.4857 36.6876 32.4857 36.7845C32.4857 38.8829 34.0894 40.5294 36.1334 40.5294C38.2718 40.5294 39.8755 38.9152 39.8755 36.7845C39.8755 36.4616 39.8441 36.1711 39.7497 35.8805C39.4982 34.0726 38.0202 32.7813 36.1334 32.8458Z" fill="#36A693"/>
<path d="M2.67188 11.5706C2.67188 11.5706 3.17502 11.3123 4.14985 11.3446Z" fill="#09425A"/>
<path d="M7.32818 16.2192C7.32818 16.2192 7.32818 14.5727 7.79987 12.8293C8.27156 11.0537 8.27156 11.0537 8.27156 11.0537L5.44141 13.6364L6.07033 16.2192H7.32818Z" fill="#09425A"/>
<path d="M5.00173 11.9575C5.63066 12.7969 5.725 11.6347 6.07091 12.0221C6.88851 12.8938 7.95768 14.6048 9.21552 14.6048C10.5048 14.6048 10.5048 13.7977 11.7312 12.6678C12.2658 12.1835 12.8947 12.1835 13.9325 11.6993C14.2155 11.5701 15.4419 15.7025 15.4419 15.7025L13.1463 16.8324C13.0834 16.8001 12.9576 18.7695 12.3601 18.1561C10.7878 16.5419 10.7878 15.8962 9.21552 15.8962C8.46082 15.8962 7.64321 16.8647 7.01429 17.8332C6.82561 18.1238 6.22813 16.671 5.88223 16.897C2.98918 18.7372 3.86967 14.6048 3.86967 14.6048C3.86967 14.6048 3.08352 12.1835 4.81306 14.282C4.87595 14.3466 4.93884 11.8607 5.00173 11.9575Z" fill="#09425A"/>
</svg>
