<svg width="157" height="34" viewBox="0 0 157 34" fill="none" xmlns="http://www.w3.org/2000/svg">
<path d="M55.2885 21.9788C55.2885 22.2907 55.1716 22.5636 54.9377 22.7975C54.7038 23.0055 54.4309 23.1094 54.119 23.1094H39.3823C39.3823 24.6689 39.6942 26.0724 40.3179 27.3199C40.9677 28.5415 41.8774 29.5161 43.047 30.2439C44.2425 30.9456 45.646 31.2965 47.2574 31.2965C48.505 31.2965 49.6226 31.0366 50.6102 30.5168C51.5979 29.9969 52.3906 29.3342 52.9884 28.5285C53.2743 28.2946 53.5472 28.1776 53.8071 28.1776C54.067 28.1776 54.3009 28.2816 54.5088 28.4895C54.7167 28.6974 54.8207 28.9313 54.8207 29.1912C54.8207 29.4771 54.6908 29.75 54.4309 30.0099C53.5992 31.0236 52.5465 31.8553 51.273 32.505C50.0254 33.1548 48.6999 33.4797 47.2964 33.4797C45.2951 33.4797 43.5278 33.0508 41.9943 32.1931C40.4609 31.3355 39.2653 30.1399 38.4076 28.6064C37.5499 27.047 37.1211 25.2537 37.1211 23.2264C37.1211 21.0952 37.5369 19.2368 38.3686 17.6514C39.2263 16.04 40.3569 14.8184 41.7604 13.9867C43.1639 13.129 44.6584 12.7002 46.2438 12.7002C47.8032 12.7002 49.2587 13.0641 50.6102 13.7918C51.9877 14.5195 53.1053 15.5851 53.963 16.9886C54.8207 18.3921 55.2626 20.0555 55.2885 21.9788ZM46.2438 14.9614C44.7363 14.9614 43.3329 15.4812 42.0333 16.5208C40.7598 17.5604 39.9411 19.0549 39.5772 21.0042H52.8714V20.6923C52.7415 19.5227 52.3516 18.5091 51.7018 17.6514C51.0521 16.7677 50.2334 16.105 49.2457 15.6631C48.2841 15.1953 47.2834 14.9614 46.2438 14.9614Z" fill="white"/>
<path d="M80.6163 7.82694C81.0062 8.06085 81.2011 8.38574 81.2011 8.80159C81.2011 9.0355 81.1101 9.29541 80.9282 9.58131C80.6943 9.8672 80.3954 10.0102 80.0315 10.0102C79.8236 10.0102 79.6157 9.94518 79.4077 9.81522C77.3285 8.43772 75.0543 7.74897 72.5852 7.74897C70.48 7.74897 68.5696 8.24279 66.8543 9.23043C65.1649 10.2181 63.8264 11.6086 62.8387 13.4019C61.8771 15.1693 61.3962 17.1836 61.3962 19.4447C61.3962 21.7579 61.8901 23.8112 62.8777 25.6045C63.8653 27.3719 65.2039 28.7494 66.8933 29.737C68.6086 30.6987 70.506 31.1795 72.5852 31.1795C75.0543 31.1795 77.3155 30.5038 79.3688 29.1522C79.5767 29.0223 79.7976 28.9573 80.0315 28.9573C80.3954 28.9573 80.6943 29.1133 80.9282 29.4251C81.1101 29.6331 81.2011 29.88 81.2011 30.1659C81.2011 30.5817 81.0192 30.8936 80.6553 31.1015C79.6417 31.7773 78.3941 32.3491 76.9126 32.8169C75.4312 33.2588 73.9887 33.4797 72.5852 33.4797C70.1161 33.4797 67.8289 32.8949 65.7237 31.7253C63.6444 30.5298 61.981 28.8664 60.7335 26.7351C59.5119 24.6039 58.9011 22.1738 58.9011 19.4447C58.9011 16.8197 59.5119 14.4416 60.7335 12.3103C61.955 10.1531 63.6054 8.4767 65.6847 7.28113C67.7639 6.05958 70.0641 5.4488 72.5852 5.4488C74.0407 5.4488 75.4572 5.65672 76.8347 6.07257C78.2382 6.48842 79.4987 7.07321 80.6163 7.82694Z" fill="white"/>
<path d="M88.1531 31.9202C88.1531 32.2581 88.0361 32.544 87.8022 32.7779C87.5943 32.9859 87.3214 33.0898 86.9835 33.0898C86.6456 33.0898 86.3597 32.9859 86.1258 32.7779C85.9179 32.544 85.8139 32.2581 85.8139 31.9202V5.40981C85.8139 5.07193 85.9179 4.79903 86.1258 4.59111C86.3597 4.35719 86.6456 4.24023 86.9835 4.24023C87.3214 4.24023 87.5943 4.35719 87.8022 4.59111C88.0361 4.79903 88.1531 5.07193 88.1531 5.40981V31.9202Z" fill="white"/>
<path d="M96.8262 31.9202C96.8262 32.2581 96.7093 32.544 96.4754 32.7779C96.2674 32.9859 95.9945 33.0898 95.6567 33.0898C95.3188 33.0898 95.0329 32.9859 94.799 32.7779C94.591 32.544 94.4871 32.2581 94.4871 31.9202V13.9867C94.4871 13.6488 94.591 13.3759 94.799 13.168C95.0329 12.9341 95.3188 12.8171 95.6567 12.8171C95.9945 12.8171 96.2674 12.9341 96.4754 13.168C96.7093 13.3759 96.8262 13.6488 96.8262 13.9867V31.9202ZM95.6567 10.2051C95.1368 10.2051 94.734 10.0881 94.4481 9.85421C94.1622 9.5943 94.0192 9.23043 94.0192 8.7626V8.37274C94.0192 7.90491 94.1622 7.55404 94.4481 7.32012C94.76 7.06022 95.1758 6.93026 95.6956 6.93026C96.7353 6.93026 97.2551 7.41109 97.2551 8.37274V8.7626C97.2551 9.23043 97.1121 9.5943 96.8262 9.85421C96.5663 10.0881 96.1765 10.2051 95.6567 10.2051Z" fill="white"/>
<path d="M112.298 12.7002C114.716 12.7002 116.483 13.4149 117.601 14.8444C118.744 16.2479 119.316 18.1192 119.316 20.4584V31.9202C119.316 32.2581 119.199 32.544 118.965 32.7779C118.731 32.9859 118.458 33.0898 118.146 33.0898C117.808 33.0898 117.523 32.9859 117.289 32.7779C117.081 32.544 116.977 32.2581 116.977 31.9202V20.5753C116.977 18.886 116.548 17.5214 115.69 16.4818C114.859 15.4162 113.559 14.8834 111.792 14.8834C110.674 14.8834 109.608 15.1433 108.595 15.6631C107.607 16.1829 106.801 16.8847 106.178 17.7684C105.554 18.626 105.242 19.5617 105.242 20.5753V31.9202C105.242 32.2581 105.125 32.544 104.891 32.7779C104.683 32.9859 104.41 33.0898 104.072 33.0898C103.735 33.0898 103.449 32.9859 103.215 32.7779C103.007 32.544 102.903 32.2581 102.903 31.9202V14.4545C102.903 14.1167 103.007 13.8438 103.215 13.6358C103.449 13.4019 103.735 13.285 104.072 13.285C104.41 13.285 104.683 13.4019 104.891 13.6358C105.125 13.8438 105.242 14.1167 105.242 14.4545V16.5988C105.944 15.4812 106.944 14.5585 108.244 13.8308C109.569 13.077 110.921 12.7002 112.298 12.7002Z" fill="white"/>
<path d="M127.703 31.9202C127.703 32.2581 127.586 32.544 127.352 32.7779C127.144 32.9859 126.871 33.0898 126.533 33.0898C126.195 33.0898 125.909 32.9859 125.676 32.7779C125.468 32.544 125.364 32.2581 125.364 31.9202V13.9867C125.364 13.6488 125.468 13.3759 125.676 13.168C125.909 12.9341 126.195 12.8171 126.533 12.8171C126.871 12.8171 127.144 12.9341 127.352 13.168C127.586 13.3759 127.703 13.6488 127.703 13.9867V31.9202ZM126.533 10.2051C126.013 10.2051 125.611 10.0881 125.325 9.85421C125.039 9.5943 124.896 9.23043 124.896 8.7626V8.37274C124.896 7.90491 125.039 7.55404 125.325 7.32012C125.637 7.06022 126.052 6.93026 126.572 6.93026C127.612 6.93026 128.132 7.41109 128.132 8.37274V8.7626C128.132 9.23043 127.989 9.5943 127.703 9.85421C127.443 10.0881 127.053 10.2051 126.533 10.2051Z" fill="white"/>
<path d="M142.395 12.7002C143.617 12.7002 144.747 12.8431 145.787 13.129C146.853 13.3889 147.697 13.7528 148.321 14.2206C148.971 14.6885 149.296 15.1953 149.296 15.7411C149.296 16.027 149.192 16.2869 148.984 16.5208C148.802 16.7547 148.568 16.8717 148.282 16.8717C148.022 16.8717 147.801 16.8197 147.619 16.7157C147.463 16.6118 147.282 16.4558 147.074 16.2479C146.736 15.91 146.411 15.6631 146.099 15.5072C145.709 15.3252 145.189 15.1823 144.54 15.0783C143.916 14.9484 143.24 14.8834 142.512 14.8834C141.083 14.8834 139.77 15.2473 138.575 15.975C137.405 16.7027 136.482 17.6904 135.807 18.9379C135.131 20.1855 134.793 21.563 134.793 23.0704C134.793 24.6299 135.118 26.0334 135.768 27.2809C136.417 28.5285 137.314 29.5161 138.458 30.2439C139.627 30.9456 140.953 31.2965 142.434 31.2965C143.37 31.2965 144.111 31.2185 144.656 31.0626C145.228 30.9066 145.787 30.6857 146.333 30.3998C146.515 30.2958 146.827 30.0619 147.269 29.698C147.476 29.5161 147.658 29.3862 147.814 29.3082C147.97 29.2042 148.139 29.1522 148.321 29.1522C148.633 29.1522 148.88 29.2562 149.062 29.4641C149.244 29.6461 149.335 29.893 149.335 30.2049C149.335 30.6467 149.023 31.1275 148.399 31.6473C147.775 32.1412 146.918 32.57 145.826 32.9339C144.734 33.2978 143.526 33.4797 142.2 33.4797C140.303 33.4797 138.614 33.0378 137.132 32.1542C135.651 31.2445 134.494 29.9969 133.662 28.4115C132.857 26.8261 132.454 25.0457 132.454 23.0704C132.454 21.1731 132.87 19.4447 133.701 17.8853C134.533 16.2999 135.703 15.0393 137.21 14.1037C138.718 13.168 140.446 12.7002 142.395 12.7002Z" fill="white"/>
<path d="M152.372 0.00116286C152.415 0.00116286 152.449 0.0143422 152.476 0.040701C152.505 0.0670598 152.52 0.101656 152.52 0.144489C152.52 0.187322 152.505 0.221918 152.476 0.248276C152.449 0.27134 152.415 0.282872 152.372 0.282872H151.349V3.31248C151.349 3.35532 151.334 3.39156 151.304 3.42121C151.275 3.44757 151.238 3.46075 151.196 3.46075C151.149 3.46075 151.112 3.44757 151.082 3.42121C151.056 3.39156 151.042 3.35532 151.042 3.31248V0.282872H150.019C149.977 0.282872 149.94 0.269693 149.911 0.243334C149.884 0.216975 149.871 0.182379 149.871 0.139546C149.871 0.100008 149.884 0.0670598 149.911 0.040701C149.94 0.0143422 149.977 0.00116286 150.019 0.00116286H152.372Z" fill="white"/>
<path d="M156.165 0.00116286C156.205 0.00116286 156.238 0.0159897 156.264 0.0456433C156.294 0.0720021 156.308 0.106598 156.308 0.149431V3.31248C156.308 3.35532 156.294 3.39156 156.264 3.42121C156.234 3.44757 156.198 3.46075 156.155 3.46075C156.109 3.46075 156.071 3.44757 156.042 3.42121C156.012 3.39156 155.997 3.35532 155.997 3.31248V0.594235L154.836 2.35368C154.803 2.39652 154.765 2.41629 154.722 2.41299H154.712C154.673 2.41299 154.636 2.39322 154.603 2.35368L153.442 0.584351V3.31248C153.442 3.35532 153.427 3.39156 153.397 3.42121C153.371 3.44757 153.337 3.46075 153.294 3.46075C153.251 3.46075 153.216 3.44757 153.19 3.42121C153.164 3.39156 153.15 3.35532 153.15 3.31248V0.149431C153.15 0.109893 153.164 0.0752969 153.19 0.0456433C153.22 0.0159897 153.256 0.00116286 153.299 0.00116286C153.322 0.00116286 153.346 0.00775252 153.373 0.0209319C153.399 0.0308165 153.419 0.0456434 153.432 0.0654124L154.727 2.00772L156.032 0.0654124C156.068 0.0159897 156.112 -0.00542675 156.165 0.00116286Z" fill="white"/>
<path d="M2.71338 9.48375C1.16975 9.48375 -0.0230502 8.29094 0.000338104 6.77071C0.000338104 5.25047 1.21653 4.08105 2.76016 4.08105C4.30378 4.08105 5.49658 5.25047 5.51997 6.77071C5.51997 8.31433 4.30378 9.48375 2.71338 9.48375Z" fill="white"/>
<path d="M18.8735 9.48375C17.3299 9.48375 16.1371 8.29094 16.1605 6.77071C16.1605 5.25047 17.3767 4.08105 18.9203 4.08105C20.4639 4.08105 21.6567 5.25047 21.6801 6.77071C21.6567 8.31433 20.4405 9.48375 18.8735 9.48375Z" fill="white"/>
<path d="M26.9438 9.48375C25.4002 9.48375 24.2074 8.29094 24.2308 6.77071C24.2308 5.25047 25.447 4.08105 26.9906 4.08105C28.5342 4.08105 29.727 5.25047 29.7504 6.77071C29.727 8.31433 28.5109 9.48375 26.9438 9.48375Z" fill="white"/>
<path d="M10.8281 4.08105C10.1498 4.08105 9.54171 4.29155 9.07395 4.66576C9.07395 4.66576 9.07395 4.64237 9.09733 4.64237C8.53602 5.06336 8.1618 5.71823 8.04486 6.56021C7.92792 7.35541 7.90453 8.174 7.53032 8.92243C6.5714 10.8403 5.00438 11.7758 2.89944 11.8927C2.85266 11.8927 2.82928 11.8927 2.7825 11.8927C3.25026 13.1557 2.66556 14.6759 1.51953 15.4244C1.70664 15.705 1.87036 16.0091 1.94052 16.3131C1.96391 16.3599 1.96391 16.4301 1.96391 16.4768C2.01069 16.4768 2.08085 16.4768 2.12763 16.4768C2.52523 15.4945 3.3906 14.7227 4.7705 14.7227C5.00439 14.7227 5.23827 14.7461 5.44876 14.7929C5.44876 14.7461 5.47215 14.6759 5.47215 14.6292C5.47215 14.559 5.47215 14.4654 5.47215 14.3953C5.47215 14.3719 5.47215 14.3485 5.47215 14.3017C5.61248 11.6589 8.23197 9.64746 10.7111 9.48375C10.7345 9.48375 10.7345 9.48375 10.7579 9.48375C12.3483 9.48375 13.5411 8.31433 13.5411 6.77071C13.5645 5.25047 12.3717 4.08105 10.8281 4.08105Z" fill="white"/>
<path d="M13.5673 22.581C13.5673 21.9027 13.3334 21.2946 12.9358 20.8503C12.9358 20.8503 12.9592 20.8503 12.9592 20.8737C12.5148 20.3123 11.8599 19.9615 11.0179 19.868C10.2227 19.7744 9.40415 19.751 8.63234 19.4002C6.7145 18.488 5.7322 16.921 5.59187 14.8161C5.59187 14.7693 5.59187 14.7459 5.56848 14.6991C4.30551 15.1903 2.78527 14.629 2.03685 13.5063C1.75619 13.6935 1.45214 13.8572 1.14809 13.9507C1.10132 13.9741 1.03115 13.9741 0.984375 13.9975C0.984375 14.0443 0.984375 14.1144 1.00776 14.1612C1.99007 14.5354 2.78527 15.4008 2.80866 16.7807C2.80866 17.0146 1.96668 16.8976 1.91991 17.1081C1.96668 17.1081 2.34089 17.342 2.38767 17.342C2.45784 17.342 3.06593 17.459 3.1361 17.459C3.15948 17.459 3.18287 17.459 3.22965 17.459C5.87252 17.5525 7.93069 20.1486 8.14119 22.6278C8.14119 22.6512 8.14119 22.6512 8.14119 22.6746C8.16458 24.265 9.35738 25.4344 10.901 25.411C12.4446 25.3408 13.5907 24.1246 13.5673 22.581Z" fill="white"/>
<path d="M10.7837 17.3421C9.24007 17.3421 8.04726 16.1493 8.07065 14.6291C8.07065 13.1089 9.28684 11.9395 10.8305 11.9395C12.3741 11.9395 13.5669 13.1089 13.5903 14.6291C13.5903 16.1727 12.3741 17.3421 10.7837 17.3421Z" fill="white"/>
<path d="M10.7837 25.2943C9.24007 25.2943 8.04726 24.1015 8.07065 22.5813C8.07065 21.061 9.28684 19.8916 10.8305 19.8916C12.3741 19.8916 13.5669 21.061 13.5903 22.5813C13.5903 24.1249 12.3741 25.2943 10.7837 25.2943Z" fill="white"/>
<path d="M2.83057 17.3421C1.28694 17.3421 0.0941373 16.1493 0.117526 14.6291C0.117526 13.1089 1.28694 11.9628 2.80718 11.9395C2.83057 11.9395 2.85395 11.9395 2.87734 11.9395C4.42097 11.9395 5.61377 13.1089 5.63716 14.6291C5.63716 16.1727 4.42097 17.3421 2.83057 17.3421Z" fill="white"/>
<path d="M18.8735 17.3421C17.3299 17.3421 16.1371 16.1493 16.1605 14.6291C16.1605 13.1089 17.3767 11.9395 18.9203 11.9395C20.4639 11.9395 21.6567 13.1089 21.6801 14.6291C21.6567 16.1727 20.4405 17.3421 18.8735 17.3421Z" fill="white"/>
<path d="M2.71338 25.2005C1.16975 25.2005 -0.0230502 24.0077 0.000338104 22.4875C0.000338104 20.9673 1.21653 19.7979 2.76016 19.7979C4.30378 19.7979 5.49658 20.9673 5.51997 22.4875C5.51997 24.0311 4.30378 25.2005 2.71338 25.2005Z" fill="white"/>
<path d="M26.9438 25.2005C25.4002 25.2005 24.2074 24.0077 24.2308 22.4875C24.2308 20.9673 25.447 19.7979 26.9906 19.7979C28.5342 19.7979 29.727 20.9673 29.7504 22.4875C29.727 24.0311 28.5109 25.2005 26.9438 25.2005Z" fill="white"/>
<path d="M10.7837 33.0589C9.24007 33.0589 8.04726 31.8661 8.07065 30.3459C8.07065 28.8257 9.28684 27.6562 10.8305 27.6562C12.3741 27.6562 13.5669 28.8257 13.5903 30.3459C13.5903 31.8895 12.3741 33.0589 10.7837 33.0589Z" fill="white"/>
<path d="M2.83057 33.0589C1.28694 33.0589 0.0941373 31.8661 0.117526 30.3459C0.117526 28.8257 1.33372 27.6562 2.87734 27.6562C4.42097 27.6562 5.61377 28.8257 5.63716 30.3459C5.63716 31.8895 4.42097 33.0589 2.83057 33.0589Z" fill="white"/>
<path d="M18.8735 33.0589C17.3299 33.0589 16.1371 31.8661 16.1605 30.3459C16.1605 28.8257 17.3767 27.6562 18.9203 27.6562C20.4639 27.6562 21.6567 28.8257 21.6801 30.3459C21.6567 31.8895 20.4405 33.0589 18.8735 33.0589Z" fill="white"/>
<path d="M26.8718 27.4693C26.8017 27.4693 26.7081 27.4693 26.638 27.4927C26.6146 27.4927 26.5912 27.4927 26.5444 27.4927C23.9951 27.4459 21.9837 25.0603 21.5861 22.6747C21.5861 22.6045 21.6095 22.5577 21.6095 22.4876C21.6095 22.4174 21.6095 22.3238 21.6095 22.2537C21.6095 22.2303 21.6095 22.2069 21.6095 22.1601C21.7498 19.5173 24.3693 17.5059 26.8484 17.3421C26.8718 17.3421 26.8718 17.3421 26.8952 17.3421C28.4856 17.3421 29.6784 16.1727 29.6784 14.6291C29.6784 13.1089 28.4856 11.9395 26.9186 11.9395C26.7315 11.9395 26.5678 11.9628 26.3807 11.9862C26.3339 11.9862 26.2637 12.0096 26.217 12.033C26.1 12.0564 26.0065 12.0798 25.8895 12.1266C25.8194 12.1499 25.7726 12.1733 25.7024 12.1967C25.6089 12.2435 25.5153 12.2903 25.4218 12.3371C25.375 12.3604 25.3048 12.4072 25.258 12.454C25.2113 12.4774 25.1879 12.5008 25.1411 12.5242C25.1411 12.5242 25.1411 12.5008 25.1645 12.5008C25.0943 12.5475 25.0476 12.6177 24.9774 12.6879L24.954 12.7113C24.533 13.1323 24.229 13.6936 24.1354 14.4186C24.0185 15.2138 23.9951 16.0324 23.6209 16.7808C22.7321 18.5583 21.3054 19.4939 19.3876 19.7044C19.1771 19.6576 18.9666 19.6342 18.7327 19.6342C17.4464 19.681 16.4407 20.5697 16.1834 21.7859C16.1834 21.8327 16.16 21.8795 16.1366 21.9262C16.0898 22.1134 16.0898 22.2771 16.0898 22.4642C16.0898 23.236 16.3705 23.9142 16.8617 24.4054C17.3294 24.8732 17.9609 25.1538 18.6626 25.1772C18.6626 25.1772 18.6626 25.1772 18.6859 25.1772C19.4811 25.2708 20.2997 25.2708 21.0715 25.6216C22.9894 26.5103 23.9951 28.0306 24.1822 30.1121C24.1822 30.1823 24.1588 30.2525 24.1588 30.3226C24.1588 31.8429 25.3516 33.0357 26.8718 33.0357C28.4622 33.0357 29.655 31.8663 29.655 30.3226C29.655 30.0888 29.6317 29.8783 29.5615 29.6678C29.3744 28.358 28.2751 27.4225 26.8718 27.4693Z" fill="white"/>
<path d="M1.98828 12.0564C1.98828 12.0564 2.36249 11.8693 3.08753 11.8926L1.98828 12.0564Z" fill="white"/>
<path d="M5.45017 15.4243C5.45017 15.4243 5.45017 14.2315 5.801 12.9685C6.15182 11.6821 6.15182 11.6821 6.15182 11.6821L4.04688 13.5532L4.51464 15.4243H5.45017Z" fill="white"/>
<path d="M3.72066 12.3372C4.18842 12.9453 4.25859 12.1033 4.51586 12.384C5.12395 13.0155 5.91916 14.255 6.85469 14.255C7.81361 14.255 7.81361 13.6703 8.72575 12.8517C9.12335 12.5009 9.59112 12.5009 10.3629 12.1501C10.5734 12.0565 11.4856 15.0502 11.4856 15.0502L9.77822 15.8688C9.73144 15.8454 9.63789 17.2721 9.19351 16.8278C8.0241 15.6583 8.0241 15.1906 6.85469 15.1906C6.29337 15.1906 5.68527 15.8922 5.21751 16.5939C5.07718 16.8044 4.6328 15.7519 4.37553 15.9156C2.22381 17.2487 2.87868 14.255 2.87868 14.255C2.87868 14.255 2.29397 12.5009 3.58033 14.0212C3.62711 14.0679 3.67388 12.267 3.72066 12.3372Z" fill="white"/>
</svg>
