<svg width="24" height="24" viewBox="0 0 24 24" fill="none" xmlns="http://www.w3.org/2000/svg">
<mask id="path-1-outside-1_809_5587" maskUnits="userSpaceOnUse" x="2" y="2" width="20" height="20" fill="black">
<rect fill="white" x="2" y="2" width="20" height="20"/>
<path fill-rule="evenodd" clip-rule="evenodd" d="M11.2398 3.03814C8.97926 3.25747 6.66394 4.40368 5.20704 6.02476C4.04519 7.31753 3.36204 8.77973 3.08505 10.5667C2.97228 11.2942 2.97154 12.7092 3.08353 13.4276C3.35292 15.1554 3.99597 16.5744 5.08099 17.8353C6.84343 19.8836 9.64519 21.0952 12.3853 20.9941C14.7368 20.9074 16.638 20.1411 18.1547 18.6688C19.4457 17.4154 20.3781 15.6978 20.7996 13.7968C21.3786 11.1852 20.6881 8.39144 18.9223 6.20114C18.4001 5.5534 17.5568 4.80927 16.8179 4.34435C15.2275 3.34362 13.1369 2.85409 11.2398 3.03814ZM11.7163 6.20529V8.8117L11.4082 8.78789C10.657 8.72983 9.6773 8.51733 9.06253 8.27909C8.6365 8.11395 8.19544 7.91706 8.19544 7.89202C8.19544 7.84824 8.46711 7.06638 8.58133 6.78137C8.76487 6.32345 9.16593 5.57482 9.41968 5.21652C9.87328 4.57599 10.5115 4.01605 11.0402 3.79486C11.252 3.70625 11.5788 3.60617 11.6723 3.60124C11.7071 3.59941 11.7163 4.1424 11.7163 6.20529ZM12.7902 3.73104C13.9842 4.15439 15.023 5.52006 15.6937 7.54843C15.7565 7.73821 15.8014 7.89994 15.7935 7.90781C15.7856 7.91569 15.6215 7.99172 15.429 8.07675C14.5423 8.46824 13.5984 8.70321 12.5701 8.78838L12.2796 8.81244V6.2041V3.59572L12.4117 3.6197C12.4843 3.63286 12.6546 3.68297 12.7902 3.73104ZM9.56235 4.19026C8.83582 4.94628 8.24371 5.97285 7.82135 7.2088C7.74967 7.41856 7.68668 7.59576 7.6814 7.60261C7.66214 7.62741 7.05049 7.20943 6.73773 6.95779C6.56155 6.81604 6.29858 6.58778 6.15334 6.45057L5.88928 6.20107L6.20615 5.89886C7.08141 5.06408 8.17865 4.40856 9.3543 4.0182C9.63678 3.92438 9.87377 3.84708 9.88099 3.84638C9.8882 3.84564 9.7448 4.0004 9.56235 4.19026ZM14.7443 4.04619C15.8689 4.42762 17.1809 5.24511 17.9482 6.04248L18.1067 6.20712L17.8426 6.45173C17.6974 6.58627 17.4518 6.79972 17.2969 6.92607C17.0072 7.16235 16.3339 7.6272 16.3158 7.60349C16.3101 7.59614 16.2373 7.39236 16.1538 7.1506C15.7375 5.94444 15.1444 4.92387 14.4322 4.1884L14.1007 3.84596L14.2904 3.90131C14.3948 3.93173 14.599 3.99692 14.7443 4.04619ZM5.83104 6.94383C6.27935 7.36402 6.80252 7.76167 7.33892 8.09007L7.52106 8.20158L7.47191 8.40575C7.25498 9.30703 7.06877 10.7365 7.06877 11.5005V11.7221H5.32594H3.58311V11.548C3.58311 11.3356 3.67074 10.6533 3.74253 10.3065C3.95414 9.28439 4.39823 8.22212 4.97315 7.36265C5.22165 6.99113 5.47519 6.65829 5.50962 6.65829C5.51885 6.65829 5.66348 6.78678 5.83104 6.94383ZM18.6345 6.81847C19.2223 7.53492 19.8129 8.68989 20.0962 9.67722C20.2647 10.2642 20.4117 11.1451 20.4126 11.5726L20.4128 11.7221H18.6755H16.9382L16.915 11.2034C16.8757 10.3218 16.7526 9.39829 16.5628 8.56276L16.4802 8.19909L16.6906 8.07045C17.2016 7.75797 17.98 7.15085 18.3163 6.80247C18.3928 6.72317 18.4662 6.65829 18.4793 6.65829C18.4924 6.65829 18.5622 6.73038 18.6345 6.81847ZM8.35631 8.61217C9.20368 8.99786 10.3732 9.2898 11.3466 9.35869L11.6987 9.38359L11.708 10.5528L11.7173 11.7221H9.6728H7.62834L7.6502 11.3265C7.67735 10.8359 7.76269 9.94662 7.8097 9.66491C7.89902 9.12966 8.03341 8.48688 8.05602 8.48688C8.06978 8.48688 8.20491 8.54325 8.35631 8.61217ZM16.0589 8.9704C16.2173 9.78563 16.292 10.4016 16.3466 11.344L16.3686 11.7221H14.3236H12.2787L12.288 10.5528L12.2973 9.38359L12.6493 9.35869C13.1494 9.32328 13.665 9.23769 14.2293 9.09629C14.7125 8.97522 15.4751 8.708 15.7477 8.56424C15.8252 8.52341 15.9057 8.4893 15.9267 8.48843C15.9481 8.48755 16.0063 8.70008 16.0589 8.9704ZM7.06877 12.5063C7.06877 13.2694 7.25506 14.7003 7.47141 15.5989L7.52007 15.8009L7.12742 16.056C6.66383 16.3572 6.14968 16.7597 5.77855 17.1118L5.51156 17.3651L5.39041 17.2249C5.17363 16.9741 4.7176 16.2628 4.49868 15.8339C4.15427 15.1591 3.89045 14.4148 3.74253 13.7003C3.67074 13.3535 3.58311 12.6711 3.58311 12.4587V12.2847H5.32594H7.06877V12.5063ZM11.708 13.454L11.6987 14.6232L11.329 14.6493C10.3886 14.7156 9.30937 14.9798 8.45951 15.3518C8.28523 15.4281 8.11774 15.4982 8.08732 15.5076C8.04172 15.5218 8.01539 15.4393 7.93757 15.0388C7.77868 14.2211 7.70404 13.606 7.64932 12.6627L7.62739 12.2847H9.67234H11.7173L11.708 13.454ZM16.3466 12.6627C16.3139 13.227 16.2599 13.8066 16.2033 14.2012C16.1301 14.7113 15.969 15.5199 15.9405 15.5199C15.9271 15.5199 15.799 15.4663 15.6558 15.4007C14.7537 14.9876 13.6937 14.7223 12.6493 14.6482L12.2973 14.6232L12.288 13.454L12.2787 12.2847H14.3236H16.3686L16.3466 12.6627ZM20.4126 12.4342C20.4113 13.1009 20.1646 14.2509 19.8498 15.0577C19.5711 15.772 18.9967 16.7706 18.6029 17.2254L18.4812 17.3661L18.2587 17.1524C17.7996 16.7113 17.1017 16.1728 16.6384 15.9019L16.4799 15.8092L16.5626 15.4448C16.7526 14.6085 16.8757 13.6853 16.915 12.8034L16.9382 12.2847H18.6755H20.4128L20.4126 12.4342ZM11.7163 17.8084V20.4135L11.6019 20.3906C10.2366 20.1179 9.08517 18.7625 8.33202 16.5414C8.25688 16.3198 8.19544 16.1278 8.19544 16.1147C8.19544 16.0799 8.98398 15.7473 9.34687 15.6288C10.0412 15.4023 10.9288 15.2345 11.5667 15.2093L11.7163 15.2034V17.8084ZM13.2479 15.2956C13.708 15.3604 14.4339 15.5414 14.8484 15.6947C15.2455 15.8416 15.8005 16.0869 15.8005 16.1156C15.8005 16.1282 15.7391 16.3198 15.6639 16.5414C15.0739 18.2814 14.2507 19.4822 13.2479 20.0656C13.0233 20.1962 12.6299 20.3475 12.4117 20.3871L12.2796 20.4111V17.8027V15.1943L12.5701 15.2177C12.7299 15.2305 13.0349 15.2656 13.2479 15.2956ZM7.77016 16.654C7.89951 17.0587 8.08214 17.5084 8.3022 17.9639C8.68248 18.7512 9.05675 19.2992 9.58101 19.8365L9.89852 20.1618L9.70713 20.1055C8.34135 19.7038 7.16703 19.0287 6.16415 18.0688L5.88928 17.8057L6.17095 17.5418C6.32586 17.3967 6.57599 17.1791 6.72678 17.0583C6.98976 16.8476 7.62865 16.4011 7.66918 16.3997C7.67988 16.3994 7.72534 16.5137 7.77016 16.654ZM16.704 16.6388C17.1141 16.9167 17.47 17.2033 17.8426 17.5559L18.1067 17.8058L17.7898 18.108C16.8483 19.0059 15.7022 19.6681 14.3975 20.068L14.1036 20.1581L14.4179 19.8337C15.0842 19.1458 15.6071 18.2869 16.038 17.1727C16.1165 16.9696 16.209 16.7125 16.2435 16.6012C16.278 16.49 16.3161 16.399 16.3282 16.399C16.3403 16.399 16.5094 16.5069 16.704 16.6388Z"/>
</mask>
<path fill-rule="evenodd" clip-rule="evenodd" d="M11.2398 3.03814C8.97926 3.25747 6.66394 4.40368 5.20704 6.02476C4.04519 7.31753 3.36204 8.77973 3.08505 10.5667C2.97228 11.2942 2.97154 12.7092 3.08353 13.4276C3.35292 15.1554 3.99597 16.5744 5.08099 17.8353C6.84343 19.8836 9.64519 21.0952 12.3853 20.9941C14.7368 20.9074 16.638 20.1411 18.1547 18.6688C19.4457 17.4154 20.3781 15.6978 20.7996 13.7968C21.3786 11.1852 20.6881 8.39144 18.9223 6.20114C18.4001 5.5534 17.5568 4.80927 16.8179 4.34435C15.2275 3.34362 13.1369 2.85409 11.2398 3.03814ZM11.7163 6.20529V8.8117L11.4082 8.78789C10.657 8.72983 9.6773 8.51733 9.06253 8.27909C8.6365 8.11395 8.19544 7.91706 8.19544 7.89202C8.19544 7.84824 8.46711 7.06638 8.58133 6.78137C8.76487 6.32345 9.16593 5.57482 9.41968 5.21652C9.87328 4.57599 10.5115 4.01605 11.0402 3.79486C11.252 3.70625 11.5788 3.60617 11.6723 3.60124C11.7071 3.59941 11.7163 4.1424 11.7163 6.20529ZM12.7902 3.73104C13.9842 4.15439 15.023 5.52006 15.6937 7.54843C15.7565 7.73821 15.8014 7.89994 15.7935 7.90781C15.7856 7.91569 15.6215 7.99172 15.429 8.07675C14.5423 8.46824 13.5984 8.70321 12.5701 8.78838L12.2796 8.81244V6.2041V3.59572L12.4117 3.6197C12.4843 3.63286 12.6546 3.68297 12.7902 3.73104ZM9.56235 4.19026C8.83582 4.94628 8.24371 5.97285 7.82135 7.2088C7.74967 7.41856 7.68668 7.59576 7.6814 7.60261C7.66214 7.62741 7.05049 7.20943 6.73773 6.95779C6.56155 6.81604 6.29858 6.58778 6.15334 6.45057L5.88928 6.20107L6.20615 5.89886C7.08141 5.06408 8.17865 4.40856 9.3543 4.0182C9.63678 3.92438 9.87377 3.84708 9.88099 3.84638C9.8882 3.84564 9.7448 4.0004 9.56235 4.19026ZM14.7443 4.04619C15.8689 4.42762 17.1809 5.24511 17.9482 6.04248L18.1067 6.20712L17.8426 6.45173C17.6974 6.58627 17.4518 6.79972 17.2969 6.92607C17.0072 7.16235 16.3339 7.6272 16.3158 7.60349C16.3101 7.59614 16.2373 7.39236 16.1538 7.1506C15.7375 5.94444 15.1444 4.92387 14.4322 4.1884L14.1007 3.84596L14.2904 3.90131C14.3948 3.93173 14.599 3.99692 14.7443 4.04619ZM5.83104 6.94383C6.27935 7.36402 6.80252 7.76167 7.33892 8.09007L7.52106 8.20158L7.47191 8.40575C7.25498 9.30703 7.06877 10.7365 7.06877 11.5005V11.7221H5.32594H3.58311V11.548C3.58311 11.3356 3.67074 10.6533 3.74253 10.3065C3.95414 9.28439 4.39823 8.22212 4.97315 7.36265C5.22165 6.99113 5.47519 6.65829 5.50962 6.65829C5.51885 6.65829 5.66348 6.78678 5.83104 6.94383ZM18.6345 6.81847C19.2223 7.53492 19.8129 8.68989 20.0962 9.67722C20.2647 10.2642 20.4117 11.1451 20.4126 11.5726L20.4128 11.7221H18.6755H16.9382L16.915 11.2034C16.8757 10.3218 16.7526 9.39829 16.5628 8.56276L16.4802 8.19909L16.6906 8.07045C17.2016 7.75797 17.98 7.15085 18.3163 6.80247C18.3928 6.72317 18.4662 6.65829 18.4793 6.65829C18.4924 6.65829 18.5622 6.73038 18.6345 6.81847ZM8.35631 8.61217C9.20368 8.99786 10.3732 9.2898 11.3466 9.35869L11.6987 9.38359L11.708 10.5528L11.7173 11.7221H9.6728H7.62834L7.6502 11.3265C7.67735 10.8359 7.76269 9.94662 7.8097 9.66491C7.89902 9.12966 8.03341 8.48688 8.05602 8.48688C8.06978 8.48688 8.20491 8.54325 8.35631 8.61217ZM16.0589 8.9704C16.2173 9.78563 16.292 10.4016 16.3466 11.344L16.3686 11.7221H14.3236H12.2787L12.288 10.5528L12.2973 9.38359L12.6493 9.35869C13.1494 9.32328 13.665 9.23769 14.2293 9.09629C14.7125 8.97522 15.4751 8.708 15.7477 8.56424C15.8252 8.52341 15.9057 8.4893 15.9267 8.48843C15.9481 8.48755 16.0063 8.70008 16.0589 8.9704ZM7.06877 12.5063C7.06877 13.2694 7.25506 14.7003 7.47141 15.5989L7.52007 15.8009L7.12742 16.056C6.66383 16.3572 6.14968 16.7597 5.77855 17.1118L5.51156 17.3651L5.39041 17.2249C5.17363 16.9741 4.7176 16.2628 4.49868 15.8339C4.15427 15.1591 3.89045 14.4148 3.74253 13.7003C3.67074 13.3535 3.58311 12.6711 3.58311 12.4587V12.2847H5.32594H7.06877V12.5063ZM11.708 13.454L11.6987 14.6232L11.329 14.6493C10.3886 14.7156 9.30937 14.9798 8.45951 15.3518C8.28523 15.4281 8.11774 15.4982 8.08732 15.5076C8.04172 15.5218 8.01539 15.4393 7.93757 15.0388C7.77868 14.2211 7.70404 13.606 7.64932 12.6627L7.62739 12.2847H9.67234H11.7173L11.708 13.454ZM16.3466 12.6627C16.3139 13.227 16.2599 13.8066 16.2033 14.2012C16.1301 14.7113 15.969 15.5199 15.9405 15.5199C15.9271 15.5199 15.799 15.4663 15.6558 15.4007C14.7537 14.9876 13.6937 14.7223 12.6493 14.6482L12.2973 14.6232L12.288 13.454L12.2787 12.2847H14.3236H16.3686L16.3466 12.6627ZM20.4126 12.4342C20.4113 13.1009 20.1646 14.2509 19.8498 15.0577C19.5711 15.772 18.9967 16.7706 18.6029 17.2254L18.4812 17.3661L18.2587 17.1524C17.7996 16.7113 17.1017 16.1728 16.6384 15.9019L16.4799 15.8092L16.5626 15.4448C16.7526 14.6085 16.8757 13.6853 16.915 12.8034L16.9382 12.2847H18.6755H20.4128L20.4126 12.4342ZM11.7163 17.8084V20.4135L11.6019 20.3906C10.2366 20.1179 9.08517 18.7625 8.33202 16.5414C8.25688 16.3198 8.19544 16.1278 8.19544 16.1147C8.19544 16.0799 8.98398 15.7473 9.34687 15.6288C10.0412 15.4023 10.9288 15.2345 11.5667 15.2093L11.7163 15.2034V17.8084ZM13.2479 15.2956C13.708 15.3604 14.4339 15.5414 14.8484 15.6947C15.2455 15.8416 15.8005 16.0869 15.8005 16.1156C15.8005 16.1282 15.7391 16.3198 15.6639 16.5414C15.0739 18.2814 14.2507 19.4822 13.2479 20.0656C13.0233 20.1962 12.6299 20.3475 12.4117 20.3871L12.2796 20.4111V17.8027V15.1943L12.5701 15.2177C12.7299 15.2305 13.0349 15.2656 13.2479 15.2956ZM7.77016 16.654C7.89951 17.0587 8.08214 17.5084 8.3022 17.9639C8.68248 18.7512 9.05675 19.2992 9.58101 19.8365L9.89852 20.1618L9.70713 20.1055C8.34135 19.7038 7.16703 19.0287 6.16415 18.0688L5.88928 17.8057L6.17095 17.5418C6.32586 17.3967 6.57599 17.1791 6.72678 17.0583C6.98976 16.8476 7.62865 16.4011 7.66918 16.3997C7.67988 16.3994 7.72534 16.5137 7.77016 16.654ZM16.704 16.6388C17.1141 16.9167 17.47 17.2033 17.8426 17.5559L18.1067 17.8058L17.7898 18.108C16.8483 19.0059 15.7022 19.6681 14.3975 20.068L14.1036 20.1581L14.4179 19.8337C15.0842 19.1458 15.6071 18.2869 16.038 17.1727C16.1165 16.9696 16.209 16.7125 16.2435 16.6012C16.278 16.49 16.3161 16.399 16.3282 16.399C16.3403 16.399 16.5094 16.5069 16.704 16.6388Z" fill="#09425A"/>
<path fill-rule="evenodd" clip-rule="evenodd" d="M11.2398 3.03814C8.97926 3.25747 6.66394 4.40368 5.20704 6.02476C4.04519 7.31753 3.36204 8.77973 3.08505 10.5667C2.97228 11.2942 2.97154 12.7092 3.08353 13.4276C3.35292 15.1554 3.99597 16.5744 5.08099 17.8353C6.84343 19.8836 9.64519 21.0952 12.3853 20.9941C14.7368 20.9074 16.638 20.1411 18.1547 18.6688C19.4457 17.4154 20.3781 15.6978 20.7996 13.7968C21.3786 11.1852 20.6881 8.39144 18.9223 6.20114C18.4001 5.5534 17.5568 4.80927 16.8179 4.34435C15.2275 3.34362 13.1369 2.85409 11.2398 3.03814ZM11.7163 6.20529V8.8117L11.4082 8.78789C10.657 8.72983 9.6773 8.51733 9.06253 8.27909C8.6365 8.11395 8.19544 7.91706 8.19544 7.89202C8.19544 7.84824 8.46711 7.06638 8.58133 6.78137C8.76487 6.32345 9.16593 5.57482 9.41968 5.21652C9.87328 4.57599 10.5115 4.01605 11.0402 3.79486C11.252 3.70625 11.5788 3.60617 11.6723 3.60124C11.7071 3.59941 11.7163 4.1424 11.7163 6.20529ZM12.7902 3.73104C13.9842 4.15439 15.023 5.52006 15.6937 7.54843C15.7565 7.73821 15.8014 7.89994 15.7935 7.90781C15.7856 7.91569 15.6215 7.99172 15.429 8.07675C14.5423 8.46824 13.5984 8.70321 12.5701 8.78838L12.2796 8.81244V6.2041V3.59572L12.4117 3.6197C12.4843 3.63286 12.6546 3.68297 12.7902 3.73104ZM9.56235 4.19026C8.83582 4.94628 8.24371 5.97285 7.82135 7.2088C7.74967 7.41856 7.68668 7.59576 7.6814 7.60261C7.66214 7.62741 7.05049 7.20943 6.73773 6.95779C6.56155 6.81604 6.29858 6.58778 6.15334 6.45057L5.88928 6.20107L6.20615 5.89886C7.08141 5.06408 8.17865 4.40856 9.3543 4.0182C9.63678 3.92438 9.87377 3.84708 9.88099 3.84638C9.8882 3.84564 9.7448 4.0004 9.56235 4.19026ZM14.7443 4.04619C15.8689 4.42762 17.1809 5.24511 17.9482 6.04248L18.1067 6.20712L17.8426 6.45173C17.6974 6.58627 17.4518 6.79972 17.2969 6.92607C17.0072 7.16235 16.3339 7.6272 16.3158 7.60349C16.3101 7.59614 16.2373 7.39236 16.1538 7.1506C15.7375 5.94444 15.1444 4.92387 14.4322 4.1884L14.1007 3.84596L14.2904 3.90131C14.3948 3.93173 14.599 3.99692 14.7443 4.04619ZM5.83104 6.94383C6.27935 7.36402 6.80252 7.76167 7.33892 8.09007L7.52106 8.20158L7.47191 8.40575C7.25498 9.30703 7.06877 10.7365 7.06877 11.5005V11.7221H5.32594H3.58311V11.548C3.58311 11.3356 3.67074 10.6533 3.74253 10.3065C3.95414 9.28439 4.39823 8.22212 4.97315 7.36265C5.22165 6.99113 5.47519 6.65829 5.50962 6.65829C5.51885 6.65829 5.66348 6.78678 5.83104 6.94383ZM18.6345 6.81847C19.2223 7.53492 19.8129 8.68989 20.0962 9.67722C20.2647 10.2642 20.4117 11.1451 20.4126 11.5726L20.4128 11.7221H18.6755H16.9382L16.915 11.2034C16.8757 10.3218 16.7526 9.39829 16.5628 8.56276L16.4802 8.19909L16.6906 8.07045C17.2016 7.75797 17.98 7.15085 18.3163 6.80247C18.3928 6.72317 18.4662 6.65829 18.4793 6.65829C18.4924 6.65829 18.5622 6.73038 18.6345 6.81847ZM8.35631 8.61217C9.20368 8.99786 10.3732 9.2898 11.3466 9.35869L11.6987 9.38359L11.708 10.5528L11.7173 11.7221H9.6728H7.62834L7.6502 11.3265C7.67735 10.8359 7.76269 9.94662 7.8097 9.66491C7.89902 9.12966 8.03341 8.48688 8.05602 8.48688C8.06978 8.48688 8.20491 8.54325 8.35631 8.61217ZM16.0589 8.9704C16.2173 9.78563 16.292 10.4016 16.3466 11.344L16.3686 11.7221H14.3236H12.2787L12.288 10.5528L12.2973 9.38359L12.6493 9.35869C13.1494 9.32328 13.665 9.23769 14.2293 9.09629C14.7125 8.97522 15.4751 8.708 15.7477 8.56424C15.8252 8.52341 15.9057 8.4893 15.9267 8.48843C15.9481 8.48755 16.0063 8.70008 16.0589 8.9704ZM7.06877 12.5063C7.06877 13.2694 7.25506 14.7003 7.47141 15.5989L7.52007 15.8009L7.12742 16.056C6.66383 16.3572 6.14968 16.7597 5.77855 17.1118L5.51156 17.3651L5.39041 17.2249C5.17363 16.9741 4.7176 16.2628 4.49868 15.8339C4.15427 15.1591 3.89045 14.4148 3.74253 13.7003C3.67074 13.3535 3.58311 12.6711 3.58311 12.4587V12.2847H5.32594H7.06877V12.5063ZM11.708 13.454L11.6987 14.6232L11.329 14.6493C10.3886 14.7156 9.30937 14.9798 8.45951 15.3518C8.28523 15.4281 8.11774 15.4982 8.08732 15.5076C8.04172 15.5218 8.01539 15.4393 7.93757 15.0388C7.77868 14.2211 7.70404 13.606 7.64932 12.6627L7.62739 12.2847H9.67234H11.7173L11.708 13.454ZM16.3466 12.6627C16.3139 13.227 16.2599 13.8066 16.2033 14.2012C16.1301 14.7113 15.969 15.5199 15.9405 15.5199C15.9271 15.5199 15.799 15.4663 15.6558 15.4007C14.7537 14.9876 13.6937 14.7223 12.6493 14.6482L12.2973 14.6232L12.288 13.454L12.2787 12.2847H14.3236H16.3686L16.3466 12.6627ZM20.4126 12.4342C20.4113 13.1009 20.1646 14.2509 19.8498 15.0577C19.5711 15.772 18.9967 16.7706 18.6029 17.2254L18.4812 17.3661L18.2587 17.1524C17.7996 16.7113 17.1017 16.1728 16.6384 15.9019L16.4799 15.8092L16.5626 15.4448C16.7526 14.6085 16.8757 13.6853 16.915 12.8034L16.9382 12.2847H18.6755H20.4128L20.4126 12.4342ZM11.7163 17.8084V20.4135L11.6019 20.3906C10.2366 20.1179 9.08517 18.7625 8.33202 16.5414C8.25688 16.3198 8.19544 16.1278 8.19544 16.1147C8.19544 16.0799 8.98398 15.7473 9.34687 15.6288C10.0412 15.4023 10.9288 15.2345 11.5667 15.2093L11.7163 15.2034V17.8084ZM13.2479 15.2956C13.708 15.3604 14.4339 15.5414 14.8484 15.6947C15.2455 15.8416 15.8005 16.0869 15.8005 16.1156C15.8005 16.1282 15.7391 16.3198 15.6639 16.5414C15.0739 18.2814 14.2507 19.4822 13.2479 20.0656C13.0233 20.1962 12.6299 20.3475 12.4117 20.3871L12.2796 20.4111V17.8027V15.1943L12.5701 15.2177C12.7299 15.2305 13.0349 15.2656 13.2479 15.2956ZM7.77016 16.654C7.89951 17.0587 8.08214 17.5084 8.3022 17.9639C8.68248 18.7512 9.05675 19.2992 9.58101 19.8365L9.89852 20.1618L9.70713 20.1055C8.34135 19.7038 7.16703 19.0287 6.16415 18.0688L5.88928 17.8057L6.17095 17.5418C6.32586 17.3967 6.57599 17.1791 6.72678 17.0583C6.98976 16.8476 7.62865 16.4011 7.66918 16.3997C7.67988 16.3994 7.72534 16.5137 7.77016 16.654ZM16.704 16.6388C17.1141 16.9167 17.47 17.2033 17.8426 17.5559L18.1067 17.8058L17.7898 18.108C16.8483 19.0059 15.7022 19.6681 14.3975 20.068L14.1036 20.1581L14.4179 19.8337C15.0842 19.1458 15.6071 18.2869 16.038 17.1727C16.1165 16.9696 16.209 16.7125 16.2435 16.6012C16.278 16.49 16.3161 16.399 16.3282 16.399C16.3403 16.399 16.5094 16.5069 16.704 16.6388Z" stroke="#09425A" stroke-width="0.4" mask="url(#path-1-outside-1_809_5587)"/>
</svg>
