<svg width="24" height="24" viewBox="0 0 24 24" fill="none" xmlns="http://www.w3.org/2000/svg">
<path d="M17.1127 22.957L17.1214 23.0062C17.0979 23.0104 17.048 23.0138 16.9772 23.0168C16.9048 23.0199 16.8069 23.0228 16.6843 23.0255C16.4391 23.0309 16.0946 23.0354 15.6578 23.0391C14.7842 23.0464 13.5406 23.0502 11.9824 23.05C9.90969 23.0497 8.67738 23.0472 7.93296 23.0379C7.19133 23.0288 6.92885 23.013 6.8014 22.9847C5.96951 22.7999 5.293 22.195 5.03622 21.4045M17.1127 22.957L5.03622 21.4045C5.03622 21.4045 5.03622 21.4045 5.03622 21.4045M17.1127 22.957L17.1214 23.0062C17.9583 22.8576 18.7017 22.2113 18.9638 21.4045C18.9858 21.3367 19.0014 21.2602 19.0131 21.0494C19.0247 20.839 19.0327 20.4912 19.0382 19.8791C19.0491 18.6545 19.05 16.3683 19.05 11.9987C19.05 7.62901 19.0491 5.34281 19.0382 4.11822C19.0327 3.50615 19.0247 3.15831 19.0131 2.94786C19.0014 2.73714 18.9858 2.6606 18.9638 2.59284C18.7017 1.78601 17.9583 1.13971 17.1214 0.991059L17.1214 0.991057M17.1127 22.957L17.1214 0.991057M5.03622 21.4045C5.0142 21.3367 4.99864 21.2602 4.98694 21.0494C4.97525 20.839 4.96728 20.4912 4.96182 19.8791C4.9509 18.6545 4.95 16.3683 4.95 11.9987C4.95 7.62901 4.9509 5.34281 4.96182 4.11822C4.96728 3.50615 4.97525 3.15831 4.98694 2.94786C4.99864 2.73714 5.0142 2.66061 5.03622 2.59284C5.03622 2.59284 5.03622 2.59284 5.03622 2.59284L5.08377 2.60829L5.03622 21.4045ZM17.1214 0.991057C17.0978 0.986862 17.048 0.983518 16.9772 0.980499M17.1214 0.991057L16.9772 0.980499M17.2355 2.00288L17.2156 2.04872L16.9374 1.92767L12.1367 1.92132C10.8138 1.91958 9.58769 1.92182 8.67806 1.92681C8.22323 1.92931 7.84762 1.9325 7.57861 1.93622C7.44409 1.93809 7.33638 1.94008 7.25881 1.94219L17.2355 2.00288ZM17.2355 2.00288L17.2156 2.04872C17.5514 2.19483 17.8006 2.4461 17.926 2.76168M17.2355 2.00288C17.5825 2.15385 17.8419 2.41446 17.9724 2.74323M17.926 2.76168C18.0024 2.95427 18.0151 3.07588 18.0151 3.7488V4.47074H12H5.98485V3.7488C5.98485 3.07901 5.99784 2.95369 6.0729 2.7646C6.24078 2.34175 6.64531 2.02637 7.12544 1.94823L17.9724 2.74323M17.926 2.76168L17.9724 2.74323M17.926 2.76168C17.926 2.76168 17.926 2.76168 17.926 2.76169L17.9724 2.74323M10.723 3.54616L10.7229 3.54614C10.6875 3.51271 10.6533 3.46882 10.6261 3.42509C10.5994 3.38201 10.5769 3.33486 10.5683 3.29453C10.5683 3.29452 10.5683 3.29452 10.5683 3.29452L10.723 3.54616ZM10.723 3.54616L10.8381 3.65463L10.8525 3.66823M10.723 3.54616L10.8525 3.66823M10.8525 3.66823H10.8724M10.8525 3.66823H10.8724M10.8724 3.66823H12H13.1276H13.1475M10.8724 3.66823H13.1475M13.1475 3.66823L13.1619 3.65463M13.1475 3.66823L13.1619 3.65463M13.1619 3.65463L13.277 3.54616L13.2771 3.54614M13.1619 3.65463L13.2771 3.54614M13.2771 3.54614C13.3125 3.51271 13.3467 3.46882 13.3739 3.42509M13.2771 3.54614L13.3739 3.42509M16.9772 0.980499C16.9049 0.977414 16.807 0.97456 16.6845 0.971936C16.4394 0.966686 16.0948 0.962337 15.657 0.958933C14.7813 0.952125 13.5323 0.949095 11.9596 0.950234C9.95081 0.951717 8.71182 0.955316 7.9483 0.964646C7.5666 0.96931 7.30325 0.975412 7.12177 0.983426C6.94158 0.991383 6.83863 1.00132 6.78022 1.01467L16.9772 0.980499ZM13.3739 3.42509C13.4006 3.38201 13.4231 3.33485 13.4317 3.29452M13.3739 3.42509L13.4317 3.29452M13.4317 3.29452C13.4513 3.2022 13.4219 3.08931 13.3729 2.99437M13.4317 3.29452L13.3729 2.99437M13.3729 2.99437C13.3239 2.89916 13.2484 2.80896 13.1613 2.76814L13.3729 2.99437ZM18.0651 4.47074V4.52074H18.0151L18.0651 4.47074ZM11.643 20.4683L11.6773 20.5047L11.643 20.4683C11.5414 20.564 11.4936 20.6763 11.4902 20.7876C11.4869 20.8982 11.5275 21.0042 11.596 21.0889C11.7332 21.2585 11.9866 21.3474 12.2433 21.2223C12.473 21.1104 12.5426 20.8849 12.4884 20.6896C12.4344 20.495 12.2576 20.3291 12 20.3291C11.923 20.3291 11.8614 20.336 11.804 20.3583C11.7465 20.3807 11.6975 20.417 11.643 20.4683ZM10.9015 2.75096C10.878 2.75513 10.8552 2.7604 10.8387 2.76814L13.0985 2.75096C13.0736 2.74655 13.0429 2.74258 13.0077 2.73899C12.9371 2.7318 12.8457 2.72588 12.7409 2.72116C12.5312 2.71171 12.2654 2.70701 12 2.70701C11.7346 2.70701 11.4688 2.71171 11.2591 2.72116C11.1543 2.72588 11.0629 2.7318 10.9923 2.73899C10.9571 2.74258 10.9264 2.74655 10.9015 2.75096ZM18.0151 11.9987V18.567H12H5.98485V11.9987V5.43027H12H18.0151V11.9987ZM18.0151 20.2485C18.0151 20.9214 18.0024 21.043 17.926 21.2356C17.8006 21.5512 17.5514 21.8025 17.2156 21.9486L16.9375 22.0696H12H7.06253L6.78441 21.9486C6.44864 21.8025 6.19936 21.5512 6.07403 21.2356C5.9976 21.043 5.98485 20.9214 5.98485 20.2485V19.5266H12H18.0151V20.2485Z" fill="#09425A" stroke="#09425A" stroke-width="0.1"/>
</svg>
