<svg width="48" height="48" viewBox="0 0 48 48" fill="none" xmlns="http://www.w3.org/2000/svg">
<path d="M6.99628 8C6.687 8 6.38092 8.01274 6.0785 8.03769L5.91406 6.04446C6.27111 6.015 6.63206 6 6.99628 6C14.1759 6 19.9962 11.8203 19.9962 19V20.6972L22.7918 24.8906C23.6779 26.2197 22.7251 28 21.1277 28H19.9962V30C19.9962 30.5523 19.5485 31 18.9962 31H17.9962C16.8917 31 15.9962 31.8954 15.9962 33H18.9962C19.5485 33 19.9962 33.4477 19.9962 34V37C19.9962 38.4477 19.2266 39.7147 18.0789 40.4156C17.3641 40.8521 16.5956 40.9101 15.9184 40.8209C15.2536 40.7333 14.6168 40.4968 14.093 40.2723L9.99628 38.5165V43H7.99628V37C7.99628 36.6639 8.16517 36.3502 8.44579 36.1652C8.72642 35.9801 9.08124 35.9484 9.3902 36.0809L14.8809 38.434C15.3529 38.6363 15.7892 38.7866 16.1796 38.838C16.5576 38.8878 16.8266 38.8369 17.0364 38.7087C17.6142 38.3559 17.9962 37.7221 17.9962 37V35H14.9962C14.444 35 13.9962 34.5523 13.9962 34V33C13.9962 30.7909 15.7871 29 17.9962 29V27C17.9962 26.4477 18.444 26 18.9962 26H21.1277L18.1642 21.5547C18.0547 21.3904 17.9962 21.1974 17.9962 21V19C17.9962 12.9249 13.0714 8 6.99628 8Z" fill="#09425A"/>
<path fill-rule="evenodd" clip-rule="evenodd" d="M36.7201 15.034C36.1873 14.8919 35.6399 15.2079 35.4966 15.7404L35.0044 17.5697C34.7386 17.4511 34.4343 17.4542 34.1709 17.5782C33.9058 17.7031 33.7087 17.9379 33.6319 18.2208L31.2468 27.0002H28C27.4478 27.0002 27.0001 27.4478 27 28H25C24.4477 28 24 28.4477 24 29V34C24 34.5523 24.4477 35 25 35H27C27 35.5523 27.4477 36.0002 28 36.0002H34.204C36.4544 36.0002 38.4275 34.4969 39.0247 32.3272L41.9641 21.6488C42.0947 21.1744 41.8608 20.6755 41.4126 20.4725L41.1192 20.3396L41.8962 17.4522C41.9652 17.1958 41.9293 16.9224 41.7966 16.6924C41.6638 16.4624 41.4449 16.2946 41.1883 16.2262L36.7201 15.034ZM29 34.0002H34.204C35.5542 34.0002 36.7381 33.0982 37.0964 31.7964L39.7764 22.0604L35.2239 19.9894L32.9764 28.2624C32.858 28.6979 32.4626 29.0002 32.0113 29.0002H29V34.0002ZM36.8202 18.5183L39.2417 19.6199L39.7045 17.9002L37.1686 17.2237L36.8202 18.5183ZM26 30H27V33H26V30Z" fill="#09425A"/>
<path d="M14.5 23C15.3284 23 16 22.3284 16 21.5C16 20.6716 15.3284 20 14.5 20C13.6716 20 13 20.6716 13 21.5C13 22.3284 13.6716 23 14.5 23Z" fill="#09425A"/>
</svg>
