<svg width="220" height="48" viewBox="0 0 220 48" fill="none" xmlns="http://www.w3.org/2000/svg">
<path d="M77.8169 30.9349C77.8169 31.3739 77.6522 31.758 77.323 32.0873C76.9938 32.3799 76.6096 32.5262 76.1707 32.5262H55.4287C55.4287 34.7212 55.8677 36.6966 56.7457 38.4525C57.6602 40.1719 58.9406 41.5437 60.5868 42.568C62.2695 43.5557 64.245 44.0495 66.513 44.0495C68.269 44.0495 69.842 43.6837 71.2321 42.9521C72.6222 42.2204 73.738 41.2876 74.5794 40.1536C74.9818 39.8243 75.3659 39.6597 75.7317 39.6597C76.0975 39.6597 76.4267 39.806 76.7194 40.0987C77.012 40.3913 77.1584 40.7206 77.1584 41.0864C77.1584 41.4888 76.9755 41.8729 76.6096 42.2387C75.439 43.6654 73.9575 44.8361 72.1649 45.7506C70.409 46.6651 68.5433 47.1224 66.5679 47.1224C63.7511 47.1224 61.2635 46.5188 59.1052 45.3116C56.9469 44.1044 55.2641 42.4216 54.0569 40.2633C52.8497 38.0684 52.2461 35.5442 52.2461 32.6909C52.2461 29.6911 52.8314 27.0755 54.002 24.844C55.2092 22.576 56.8005 20.8566 58.776 19.686C60.7514 18.4788 62.8548 17.8752 65.0863 17.8752C67.2813 17.8752 69.3298 18.3873 71.2321 19.4116C73.1709 20.4359 74.744 21.9358 75.9512 23.9112C77.1584 25.8866 77.7803 28.2279 77.8169 30.9349ZM65.0863 21.0578C62.9646 21.0578 60.9892 21.7894 59.1601 23.2527C57.3676 24.716 56.2152 26.8195 55.7031 29.5631H74.4147V29.1241C74.2318 27.4779 73.6831 26.0512 72.7685 24.844C71.854 23.6003 70.7017 22.6674 69.3116 22.0455C67.958 21.387 66.5496 21.0578 65.0863 21.0578Z" fill="#36A692"/>
<path d="M113.466 11.0161C114.015 11.3453 114.289 11.8026 114.289 12.3879C114.289 12.7171 114.161 13.083 113.905 13.4854C113.576 13.8878 113.155 14.089 112.643 14.089C112.35 14.089 112.057 13.9975 111.765 13.8146C108.838 11.8758 105.637 10.9063 102.162 10.9063C99.1988 10.9063 96.5101 11.6014 94.0957 12.9915C91.7178 14.3816 89.8339 16.3387 88.4438 18.8629C87.0902 21.3505 86.4135 24.1856 86.4135 27.3682C86.4135 30.624 87.1085 33.5139 88.4986 36.0381C89.8887 38.5257 91.7727 40.4645 94.1505 41.8546C96.5649 43.2082 99.2354 43.8849 102.162 43.8849C105.637 43.8849 108.82 42.9338 111.71 41.0315C112.002 40.8486 112.313 40.7572 112.643 40.7572C113.155 40.7572 113.576 40.9767 113.905 41.4156C114.161 41.7083 114.289 42.0558 114.289 42.4582C114.289 43.0435 114.033 43.4825 113.521 43.7752C112.094 44.7263 110.338 45.5311 108.253 46.1896C106.168 46.8115 104.137 47.1224 102.162 47.1224C98.6867 47.1224 95.4675 46.2993 92.5043 44.6531C89.5778 42.9704 87.2365 40.6291 85.4806 37.6294C83.7613 34.6297 82.9016 31.2093 82.9016 27.3682C82.9016 23.6734 83.7613 20.3262 85.4806 17.3265C87.2 14.2902 89.5229 11.9306 92.4495 10.2479C95.376 8.5285 98.6135 7.66883 102.162 7.66883C104.211 7.66883 106.204 7.96149 108.143 8.5468C110.119 9.13211 111.893 9.9552 113.466 11.0161Z" fill="#36A692"/>
<path d="M124.074 44.9275C124.074 45.4031 123.909 45.8055 123.58 46.1347C123.287 46.4274 122.903 46.5737 122.428 46.5737C121.952 46.5737 121.55 46.4274 121.22 46.1347C120.928 45.8055 120.781 45.4031 120.781 44.9275V7.61396C120.781 7.13839 120.928 6.75428 121.22 6.46163C121.55 6.13239 121.952 5.96777 122.428 5.96777C122.903 5.96777 123.287 6.13239 123.58 6.46163C123.909 6.75428 124.074 7.13839 124.074 7.61396V44.9275Z" fill="#36A692"/>
<path d="M136.281 44.9275C136.281 45.4031 136.117 45.8055 135.787 46.1347C135.495 46.4274 135.111 46.5737 134.635 46.5737C134.16 46.5737 133.757 46.4274 133.428 46.1347C133.135 45.8055 132.989 45.4031 132.989 44.9275V19.686C132.989 19.2104 133.135 18.8263 133.428 18.5337C133.757 18.2044 134.16 18.0398 134.635 18.0398C135.111 18.0398 135.495 18.2044 135.787 18.5337C136.117 18.8263 136.281 19.2104 136.281 19.686V44.9275ZM134.635 14.3633C133.903 14.3633 133.336 14.1987 132.934 13.8695C132.532 13.5036 132.33 12.9915 132.33 12.333V11.7843C132.33 11.1258 132.532 10.632 132.934 10.3027C133.373 9.93691 133.958 9.754 134.69 9.754C136.153 9.754 136.885 10.4308 136.885 11.7843V12.333C136.885 12.9915 136.684 13.5036 136.281 13.8695C135.915 14.1987 135.367 14.3633 134.635 14.3633Z" fill="#36A692"/>
<path d="M158.059 17.8752C161.461 17.8752 163.948 18.8812 165.521 20.8932C167.131 22.8686 167.936 25.5025 167.936 28.7949V44.9275C167.936 45.4031 167.771 45.8055 167.442 46.1347C167.113 46.4274 166.728 46.5737 166.289 46.5737C165.814 46.5737 165.412 46.4274 165.082 46.1347C164.79 45.8055 164.643 45.4031 164.643 44.9275V28.9595C164.643 26.5817 164.04 24.6611 162.832 23.1979C161.662 21.698 159.833 20.9481 157.345 20.9481C155.772 20.9481 154.272 21.3139 152.846 22.0455C151.456 22.7772 150.321 23.7649 149.443 25.0087C148.566 26.2159 148.127 27.5328 148.127 28.9595V44.9275C148.127 45.4031 147.962 45.8055 147.633 46.1347C147.34 46.4274 146.956 46.5737 146.48 46.5737C146.005 46.5737 145.602 46.4274 145.273 46.1347C144.981 45.8055 144.834 45.4031 144.834 44.9275V20.3445C144.834 19.8689 144.981 19.4848 145.273 19.1921C145.602 18.8629 146.005 18.6983 146.48 18.6983C146.956 18.6983 147.34 18.8629 147.633 19.1921C147.962 19.4848 148.127 19.8689 148.127 20.3445V23.3625C149.114 21.7894 150.523 20.4908 152.352 19.4665C154.217 18.4056 156.12 17.8752 158.059 17.8752Z" fill="#36A692"/>
<path d="M179.74 44.9275C179.74 45.4031 179.576 45.8055 179.246 46.1347C178.954 46.4274 178.57 46.5737 178.094 46.5737C177.618 46.5737 177.216 46.4274 176.887 46.1347C176.594 45.8055 176.448 45.4031 176.448 44.9275V19.686C176.448 19.2104 176.594 18.8263 176.887 18.5337C177.216 18.2044 177.618 18.0398 178.094 18.0398C178.57 18.0398 178.954 18.2044 179.246 18.5337C179.576 18.8263 179.74 19.2104 179.74 19.686V44.9275ZM178.094 14.3633C177.362 14.3633 176.795 14.1987 176.393 13.8695C175.991 13.5036 175.789 12.9915 175.789 12.333V11.7843C175.789 11.1258 175.991 10.632 176.393 10.3027C176.832 9.93691 177.417 9.754 178.149 9.754C179.612 9.754 180.344 10.4308 180.344 11.7843V12.333C180.344 12.9915 180.143 13.5036 179.74 13.8695C179.374 14.1987 178.826 14.3633 178.094 14.3633Z" fill="#36A692"/>
<path d="M200.42 17.8752C202.139 17.8752 203.731 18.0764 205.194 18.4788C206.694 18.8446 207.883 19.3568 208.761 20.0152C209.675 20.6737 210.132 21.387 210.132 22.1553C210.132 22.5577 209.986 22.9235 209.693 23.2527C209.437 23.582 209.108 23.7466 208.706 23.7466C208.34 23.7466 208.029 23.6734 207.773 23.5271C207.553 23.3808 207.297 23.1613 207.005 22.8686C206.529 22.393 206.072 22.0455 205.633 21.826C205.084 21.57 204.353 21.3688 203.438 21.2224C202.56 21.0395 201.609 20.9481 200.585 20.9481C198.573 20.9481 196.725 21.4602 195.042 22.4845C193.396 23.5088 192.098 24.8989 191.146 26.6548C190.195 28.4108 189.72 30.3496 189.72 32.4714C189.72 34.6663 190.177 36.6417 191.092 38.3976C192.006 40.1536 193.268 41.5437 194.878 42.568C196.524 43.5557 198.39 44.0495 200.475 44.0495C201.792 44.0495 202.834 43.9398 203.603 43.7203C204.407 43.5008 205.194 43.1899 205.962 42.7875C206.218 42.6411 206.657 42.3119 207.279 41.7998C207.572 41.5437 207.828 41.3608 208.047 41.251C208.267 41.1047 208.505 41.0315 208.761 41.0315C209.2 41.0315 209.547 41.1779 209.803 41.4705C210.059 41.7266 210.187 42.0741 210.187 42.5131C210.187 43.135 209.748 43.8118 208.87 44.5434C207.992 45.2385 206.785 45.8421 205.249 46.3542C203.712 46.8663 202.011 47.1224 200.146 47.1224C197.475 47.1224 195.097 46.5005 193.012 45.2567C190.927 43.9764 189.299 42.2204 188.128 39.989C186.994 37.7575 186.427 35.2516 186.427 32.4714C186.427 29.8009 187.013 27.3682 188.183 25.1733C189.354 22.9418 191 21.1676 193.122 19.8506C195.244 18.5337 197.676 17.8752 200.42 17.8752Z" fill="#36A692"/>
<path d="M214.457 0.00163673C214.518 0.00163673 214.566 0.0201867 214.603 0.0572868C214.645 0.094387 214.666 0.143081 214.666 0.203369C214.666 0.263656 214.645 0.31235 214.603 0.34945C214.566 0.381913 214.518 0.398144 214.457 0.398144H213.017V4.66233C213.017 4.72262 212.997 4.77363 212.955 4.81537C212.913 4.85247 212.862 4.87102 212.802 4.87102C212.737 4.87102 212.684 4.85247 212.642 4.81537C212.605 4.77363 212.586 4.72262 212.586 4.66233V0.398144H211.146C211.086 0.398144 211.035 0.379594 210.993 0.342494C210.956 0.305394 210.938 0.2567 210.938 0.196412C210.938 0.140762 210.956 0.094387 210.993 0.0572868C211.035 0.0201867 211.086 0.00163673 211.146 0.00163673H214.457Z" fill="#09425A"/>
<path d="M219.796 0.00163673C219.852 0.00163673 219.898 0.0225055 219.936 0.0642431C219.977 0.101343 219.998 0.150037 219.998 0.210325V4.66233C219.998 4.72262 219.977 4.77363 219.936 4.81537C219.894 4.85247 219.843 4.87102 219.782 4.87102C219.718 4.87102 219.664 4.85247 219.623 4.81537C219.581 4.77363 219.56 4.72262 219.56 4.66233V0.836388L217.925 3.31282C217.879 3.37311 217.825 3.40093 217.765 3.39629H217.751C217.696 3.39629 217.645 3.36847 217.598 3.31282L215.964 0.822476V4.66233C215.964 4.72262 215.943 4.77363 215.901 4.81537C215.864 4.85247 215.815 4.87102 215.755 4.87102C215.695 4.87102 215.646 4.85247 215.609 4.81537C215.572 4.77363 215.553 4.72262 215.553 4.66233V0.210325C215.553 0.154675 215.572 0.105981 215.609 0.0642431C215.65 0.0225055 215.701 0.00163673 215.762 0.00163673C215.794 0.00163673 215.829 0.0109117 215.866 0.0294618C215.903 0.0433744 215.931 0.0642432 215.95 0.0920682L217.772 2.82588L219.609 0.0920682C219.66 0.0225056 219.722 -0.00763817 219.796 0.00163673Z" fill="#09425A"/>
<path d="M26.5652 13.3475C24.3925 13.3475 22.7137 11.6686 22.7466 9.52886C22.7466 7.38912 24.4584 5.74316 26.631 5.74316C28.8037 5.74316 30.4826 7.38912 30.5155 9.52886C30.4826 11.7015 28.7708 13.3475 26.5652 13.3475Z" fill="#36A692"/>
<path d="M37.9246 13.3475C35.7519 13.3475 34.073 11.6686 34.1059 9.52886C34.1059 7.38912 35.8177 5.74316 37.9904 5.74316C40.1631 5.74316 41.8419 7.38912 41.8748 9.52886C41.8419 11.7015 40.1301 13.3475 37.9246 13.3475Z" fill="#36A692"/>
<path d="M26.5652 24.409C24.3925 24.409 22.7137 22.7301 22.7466 20.5904C22.7466 18.4506 24.4584 16.8047 26.631 16.8047C28.8037 16.8047 30.4826 18.4506 30.5155 20.5904C30.4826 22.763 28.7708 24.409 26.5652 24.409Z" fill="#36A692"/>
<path d="M37.9246 35.4695C35.7519 35.4695 34.073 33.7907 34.1059 31.6509C34.1059 29.5112 35.8177 27.8652 37.9904 27.8652C40.1631 27.8652 41.8419 29.5112 41.8748 31.6509C41.8419 33.8236 40.1301 35.4695 37.9246 35.4695Z" fill="#36A692"/>
<path d="M26.5652 46.5301C24.3925 46.5301 22.7137 44.8512 22.7466 42.7115C22.7466 40.5717 24.4584 38.9258 26.631 38.9258C28.8037 38.9258 30.4826 40.5717 30.5155 42.7115C30.4826 44.8841 28.7708 46.5301 26.5652 46.5301Z" fill="#36A692"/>
<path d="M37.8241 38.663C37.7254 38.663 37.5937 38.663 37.4949 38.6959C37.462 38.6959 37.4291 38.6959 37.3633 38.6959C33.7751 38.63 30.944 35.2723 30.3844 31.9145C30.3844 31.8158 30.4173 31.75 30.4173 31.6512C30.4173 31.5524 30.4173 31.4208 30.4173 31.322C30.4173 31.2891 30.4173 31.2562 30.4173 31.1903C30.6149 27.4705 34.3018 24.6394 37.7912 24.409C37.8241 24.409 37.8241 24.409 37.8571 24.409C40.0956 24.409 41.7744 22.763 41.7744 20.5904C41.7744 18.4506 40.0956 16.8047 37.89 16.8047C37.6266 16.8047 37.3962 16.8376 37.1328 16.8705C37.067 16.8705 36.9682 16.9034 36.9024 16.9364C36.7378 16.9693 36.6061 17.0022 36.4415 17.068C36.3428 17.101 36.2769 17.1339 36.1782 17.1668C36.0465 17.2326 35.9148 17.2985 35.7832 17.3643C35.7173 17.3972 35.6186 17.4631 35.5527 17.5289C35.4869 17.5618 35.454 17.5947 35.3881 17.6277C35.3881 17.6277 35.3881 17.5947 35.421 17.5947C35.3223 17.6606 35.2564 17.7593 35.1577 17.8581L35.1248 17.891C34.5322 18.4836 34.1043 19.2736 33.9726 20.2941C33.808 21.4134 33.7751 22.5655 33.2484 23.6189C31.9975 26.1208 29.9894 27.4376 27.29 27.7338C26.9938 27.668 26.6975 27.6351 26.3683 27.6351C24.5577 27.7009 23.1422 28.9518 22.7801 30.6636C22.7801 30.7295 22.7472 30.7953 22.7143 30.8611C22.6484 31.1245 22.6484 31.3549 22.6484 31.6183C22.6484 32.7046 23.0435 33.6593 23.7348 34.3506C24.3932 35.0089 25.282 35.404 26.2695 35.4369C26.2695 35.4369 26.2695 35.4369 26.3025 35.4369C27.4217 35.5686 28.5739 35.5686 29.6602 36.0624C32.3596 37.3133 33.7751 39.453 34.0384 42.3828C34.0384 42.4816 34.0055 42.5803 34.0055 42.6791C34.0055 44.8188 35.6844 46.4977 37.8241 46.4977C40.0626 46.4977 41.7415 44.8517 41.7415 42.6791C41.7415 42.3499 41.7086 42.0536 41.6098 41.7574C41.3465 39.9139 39.7993 38.5971 37.8241 38.663Z" fill="#36A692"/>
<path d="M3.81909 13.3475C1.64643 13.3475 -0.0324432 11.6686 0.000475882 9.52886C0.000475882 7.38912 1.71227 5.74316 3.88493 5.74316C6.05759 5.74316 7.73646 7.38912 7.76938 9.52886C7.76938 11.7015 6.05759 13.3475 3.81909 13.3475Z" fill="#09425A"/>
<path d="M15.2424 5.74316C14.2878 5.74316 13.4319 6.03944 12.7735 6.56614C12.7735 6.56614 12.7735 6.53322 12.8064 6.53322C12.0164 7.12577 11.4896 8.0475 11.3251 9.23259C11.1605 10.3518 11.1275 11.504 10.6008 12.5574C9.25115 15.2568 7.04557 16.5735 4.08285 16.7381C4.01701 16.7381 3.98409 16.7381 3.91826 16.7381C4.57664 18.5158 3.75366 20.6555 2.14062 21.7089C2.40398 22.104 2.63441 22.5319 2.73317 22.9598C2.76609 23.0257 2.76609 23.1244 2.76609 23.1903C2.83193 23.1903 2.93069 23.1903 2.99652 23.1903C3.55615 21.8077 4.77416 20.7213 6.71638 20.7213C7.04557 20.7213 7.37476 20.7543 7.67103 20.8201C7.67103 20.7543 7.70395 20.6555 7.70395 20.5897C7.70395 20.4909 7.70395 20.3592 7.70395 20.2605C7.70395 20.2276 7.70395 20.1946 7.70395 20.1288C7.90147 16.4089 11.5884 13.5779 15.0778 13.3475C15.1107 13.3475 15.1107 13.3475 15.1437 13.3475C17.3822 13.3475 19.061 11.7015 19.061 9.52886C19.094 7.38912 17.4151 5.74316 15.2424 5.74316Z" fill="#09425A"/>
<path d="M19.0933 31.7824C19.0933 30.8277 18.7641 29.9718 18.2045 29.3464C18.2045 29.3464 18.2374 29.3464 18.2374 29.3793C17.6119 28.5892 16.6902 28.0954 15.5051 27.9638C14.3859 27.8321 13.2337 27.7992 12.1474 27.3054C9.44799 26.0215 8.06539 23.816 7.86787 20.8532C7.86787 20.7874 7.86787 20.7545 7.83495 20.6886C6.05732 21.3799 3.91758 20.5899 2.86417 19.0098C2.46914 19.2731 2.04119 19.5035 1.61325 19.6352C1.54741 19.6681 1.44865 19.6681 1.38281 19.7011C1.38281 19.7669 1.38281 19.8657 1.41573 19.9315C2.79833 20.4582 3.91758 21.6762 3.9505 23.6184C3.9505 23.9476 2.76541 23.783 2.69958 24.0793C2.76541 24.0793 3.29212 24.4085 3.35796 24.4085C3.45672 24.4085 4.31261 24.5731 4.41137 24.5731C4.44429 24.5731 4.47721 24.5731 4.54304 24.5731C8.2629 24.7048 11.1598 28.3588 11.4561 31.8482C11.4561 31.8811 11.4561 31.8811 11.4561 31.914C11.489 34.1525 13.1678 35.7985 15.3405 35.7656C17.5132 35.6668 19.1262 33.955 19.0933 31.7824Z" fill="#09425A"/>
<path d="M15.1746 24.408C13.0019 24.408 11.323 22.7291 11.3559 20.5894C11.3559 18.4497 13.0677 16.8037 15.2404 16.8037C17.4131 16.8037 19.0919 18.4497 19.1249 20.5894C19.1249 22.7621 17.4131 24.408 15.1746 24.408Z" fill="#09425A"/>
<path d="M15.1746 35.6014C13.0019 35.6014 11.323 33.9225 11.3559 31.7828C11.3559 29.643 13.0677 27.9971 15.2404 27.9971C17.4131 27.9971 19.0919 29.643 19.1249 31.7828C19.1249 33.9554 17.4131 35.6014 15.1746 35.6014Z" fill="#09425A"/>
<path d="M3.98315 24.408C1.81049 24.408 0.131619 22.7291 0.164538 20.5894C0.164538 18.4497 1.81049 16.8366 3.95023 16.8037C3.98315 16.8037 4.01607 16.8037 4.04899 16.8037C6.22165 16.8037 7.90053 18.4497 7.93345 20.5894C7.93345 22.7621 6.22165 24.408 3.98315 24.408Z" fill="#09425A"/>
<path d="M3.81909 35.4695C1.64643 35.4695 -0.0324432 33.7907 0.000475882 31.6509C0.000475882 29.5112 1.71227 27.8652 3.88493 27.8652C6.05759 27.8652 7.73646 29.5112 7.76938 31.6509C7.76938 33.8236 6.05759 35.4695 3.81909 35.4695Z" fill="#09425A"/>
<path d="M15.1746 46.5301C13.0019 46.5301 11.323 44.8512 11.3559 42.7115C11.3559 40.5717 13.0677 38.9258 15.2404 38.9258C17.4131 38.9258 19.0919 40.5717 19.1249 42.7115C19.1249 44.8841 17.4131 46.5301 15.1746 46.5301Z" fill="#09425A"/>
<path d="M3.98315 46.5301C1.81049 46.5301 0.131619 44.8512 0.164538 42.7115C0.164538 40.5717 1.87633 38.9258 4.04899 38.9258C6.22165 38.9258 7.90053 40.5717 7.93345 42.7115C7.93345 44.8841 6.22165 46.5301 3.98315 46.5301Z" fill="#09425A"/>
<path d="M2.79688 16.9686C2.79688 16.9686 3.32358 16.7053 4.34407 16.7382Z" fill="#09425A"/>
<path d="M7.67046 21.7085C7.67046 21.7085 7.67046 20.0296 8.16424 18.252C8.65803 16.4414 8.65803 16.4414 8.65803 16.4414L5.69531 19.0749L6.35369 21.7085H7.67046Z" fill="#09425A"/>
<path d="M5.23498 17.364C5.89337 18.2199 5.99212 17.0348 6.35423 17.4299C7.21013 18.3187 8.32938 20.0634 9.64614 20.0634C10.9958 20.0634 10.9958 19.2404 12.2797 18.0883C12.8393 17.5945 13.4977 17.5945 14.584 17.1007C14.8803 16.969 16.1641 21.1826 16.1641 21.1826L13.761 22.3348C13.6952 22.3019 13.5635 24.31 12.9381 23.6845C11.2921 22.0385 11.2921 21.3802 9.64614 21.3802C8.85608 21.3802 8.00019 22.3677 7.34181 23.3553C7.14429 23.6516 6.51883 22.1702 6.15672 22.4007C3.12816 24.277 4.0499 20.0634 4.0499 20.0634C4.0499 20.0634 3.22692 17.5945 5.03747 19.7342C5.10331 19.8 5.16915 17.2653 5.23498 17.364Z" fill="#09425A"/>
</svg>
