<svg width="48" height="48" viewBox="0 0 48 48" fill="none" xmlns="http://www.w3.org/2000/svg">
<path fill-rule="evenodd" clip-rule="evenodd" d="M8 25.8982C8.79246 26.4449 9.7565 26.7684 10.8086 26.7674C12.4991 26.7659 13.9909 25.9171 14.8829 24.6231C15.8676 26.0832 17.5368 27.0433 19.4303 27.0433C21.3357 27.0433 23.014 26.0711 23.9962 24.5956C24.9779 26.0738 26.6579 27.0482 28.5654 27.0482C30.4512 27.0482 32.1145 26.0958 33.1007 24.6458C33.9975 25.9162 35.4776 26.7452 37.1509 26.7437C38.2216 26.7428 39.2006 26.406 40 25.8403V42.0001H20V29.0002H12V42.0001H8V25.8982ZM36 31.048H26V37.048H36V31.048ZM24 29.048V39.048H38V29.048H24Z" fill="#09425A"/>
<path fill-rule="evenodd" clip-rule="evenodd" d="M12 29.0002H20V42.0001H40V25.8403C39.4173 26.2526 38.7393 26.5433 38 26.671C37.7249 26.7185 37.4413 26.7435 37.1509 26.7437C36.2073 26.7446 35.3252 26.4813 34.5745 26.0238C33.9939 25.6699 33.4918 25.1998 33.1007 24.6458C32.7187 25.2075 32.235 25.6946 31.6762 26.0805C30.8036 26.6831 29.7477 27.0392 28.609 27.048C28.5945 27.0482 28.5799 27.0482 28.5654 27.0482C28.5508 27.0482 28.5362 27.0482 28.5217 27.048C27.3655 27.039 26.2946 26.672 25.4143 26.0525C24.856 25.6595 24.3743 25.1649 23.9962 24.5956C23.6175 25.1645 23.1353 25.6586 22.5765 26.051C21.8641 26.5513 21.0271 26.8862 20.1213 27.0002C20.081 27.0053 20.0406 27.0099 20 27.0141C19.8127 27.0334 19.6227 27.0433 19.4303 27.0433C19.1963 27.0433 18.9657 27.0287 18.7393 27.0002C17.8424 26.8874 17.0129 26.5578 16.305 26.0656C15.7464 25.6772 15.2635 25.1875 14.8829 24.6231C14.4972 25.1827 13.9993 25.659 13.4217 26.0195C12.6636 26.4928 11.7681 26.7666 10.8086 26.7674C10.5325 26.7677 10.2624 26.7456 10 26.703C9.26232 26.5832 8.58448 26.3014 8 25.8982V42.0001H12V29.0002ZM38 29.048H24V39.048H38V29.048ZM34 33.048H28V35.048H34V33.048ZM36 31.048V37.048H26V31.048H36ZM28.5654 29.048H38H28.5654Z" fill="#09425A"/>
<path fill-rule="evenodd" clip-rule="evenodd" d="M17.6022 15.0481H8.76337C8.0556 15.0481 7.44186 15.5375 7.28428 16.2275L6.171 21.1022C5.47572 24.1467 7.7892 27.0481 10.912 27.0481C12.6321 27.0481 14.1435 26.1551 15.0081 24.8075C16.0057 26.1661 17.6144 27.0481 19.4292 27.0481C21.3356 27.0481 23.0147 26.0747 23.9967 24.5979C24.9786 26.0747 26.6578 27.0482 28.5643 27.0482C30.379 27.0482 31.9877 26.1661 32.9852 24.8075C33.8498 26.1551 35.3613 27.0481 37.0813 27.0481C40.2042 27.0481 42.5177 24.1467 41.8224 21.1022L40.7091 16.2275C40.5515 15.5375 39.9378 15.0481 39.23 15.0481H30.3913V16.0481C30.3913 16.3934 30.3475 16.7285 30.2653 17.0481H32.0452V21.5671C32.0452 23.4896 30.4867 25.0481 28.5642 25.0481C26.6417 25.0481 25.0832 23.4896 25.0832 21.5671V20.0481H22.9102V21.5671C22.9102 23.4896 21.3517 25.0481 19.4292 25.0481C17.5066 25.0481 15.9481 23.4896 15.9481 21.5671V17.0481H17.7283C17.646 16.7285 17.6022 16.3934 17.6022 16.0481V15.0481ZM9.14837 17.0481L8.1208 21.5475C7.71146 23.3399 9.0735 25.0481 10.912 25.0481C12.4933 25.0481 13.7751 23.7662 13.7751 22.185V17.0481H9.14837ZM38.845 17.0481H34.2182V22.185C34.2182 23.7662 35.5001 25.0481 37.0813 25.0481C38.9199 25.0481 40.2819 23.3399 39.8726 21.5475L38.845 17.0481Z" fill="#09425A"/>
<path fill-rule="evenodd" clip-rule="evenodd" d="M21 6.0481C18.7909 6.0481 17 7.83896 17 10.0481V16.0481C17 18.2572 18.7909 20.0481 21 20.0481H27C29.2091 20.0481 31 18.2572 31 16.0481V10.0481C31 7.83896 29.2091 6.0481 27 6.0481H21ZM25 9.5481C25 8.99581 24.5523 8.5481 24 8.5481C23.4477 8.5481 23 8.99581 23 9.5481V12.0481H20.5C19.9477 12.0481 19.5 12.4958 19.5 13.0481C19.5 13.6004 19.9477 14.0481 20.5 14.0481H23V16.5481C23 17.1004 23.4477 17.5481 24 17.5481C24.5523 17.5481 25 17.1004 25 16.5481V14.0481H27.5C28.0523 14.0481 28.5 13.6004 28.5 13.0481C28.5 12.4958 28.0523 12.0481 27.5 12.0481H25V9.5481Z" fill="#09425A"/>
<path fill-rule="evenodd" clip-rule="evenodd" d="M21 8.0481C19.8954 8.0481 19 8.94353 19 10.0481V10.4494C19.4413 10.1942 19.9536 10.0481 20.5 10.0481H21V9.5481C21 9.00166 21.1461 8.48936 21.4014 8.0481H21ZM26.5987 8.0481C26.8539 8.48936 27 9.00166 27 9.5481V10.0481H27.5C28.0464 10.0481 28.5587 10.1942 29 10.4494V10.0481C29 8.94353 28.1046 8.0481 27 8.0481H26.5987ZM29 15.6467C28.5587 15.902 28.0464 16.0481 27.5 16.0481H27V16.5481C27 17.0945 26.8539 17.6068 26.5987 18.0481H27C28.1046 18.0481 29 17.1527 29 16.0481V15.6467ZM21.4014 18.0481C21.1461 17.6068 21 17.0945 21 16.5481V16.0481H20.5C19.9536 16.0481 19.4413 15.902 19 15.6467V16.0481C19 17.1527 19.8954 18.0481 21 18.0481H21.4014ZM17 10.0481C17 7.83896 18.7909 6.0481 21 6.0481H27C29.2091 6.0481 31 7.83896 31 10.0481V16.0481C31 18.2572 29.2091 20.0481 27 20.0481H21C18.7909 20.0481 17 18.2572 17 16.0481V10.0481ZM24 8.5481C24.5523 8.5481 25 8.99581 25 9.5481V12.0481H27.5C28.0523 12.0481 28.5 12.4958 28.5 13.0481C28.5 13.6004 28.0523 14.0481 27.5 14.0481H25V16.5481C25 17.1004 24.5523 17.5481 24 17.5481C23.4477 17.5481 23 17.1004 23 16.5481V14.0481H20.5C19.9477 14.0481 19.5 13.6004 19.5 13.0481C19.5 12.4958 19.9477 12.0481 20.5 12.0481H23V9.5481C23 8.99581 23.4477 8.5481 24 8.5481Z" fill="#09425A"/>
</svg>
