<svg width="48" height="48" viewBox="0 0 48 48" fill="none" xmlns="http://www.w3.org/2000/svg">
<path fill-rule="evenodd" clip-rule="evenodd" d="M23.9994 14C15.906 14 9.8406 18.5478 6.62466 22.1883C5.69803 23.2372 5.69803 24.7628 6.62466 25.8117C9.8406 29.4522 15.906 34 23.9994 34C32.0927 34 38.1581 29.4522 41.374 25.8117C42.3007 24.7628 42.3007 23.2372 41.374 22.1883C38.1581 18.5478 32.0927 14 23.9994 14ZM5.12574 20.8642C8.56578 16.97 15.1334 12 23.9994 12C32.8653 12 39.4329 16.97 42.873 20.8642C44.4677 22.6695 44.4677 25.3305 42.873 27.1358C39.4329 31.03 32.8653 36 23.9994 36C15.1334 36 8.56578 31.03 5.12574 27.1358C3.531 25.3305 3.531 22.6695 5.12574 20.8642Z" fill="#09425A"/>
<path fill-rule="evenodd" clip-rule="evenodd" d="M31.0529 16.907C27.1355 13.0139 20.8039 13.0335 16.9108 16.9509L15.4922 15.5411C20.1639 10.8403 27.7619 10.8166 32.4627 15.4884C37.1635 20.1601 37.1871 27.758 32.5154 32.4588L31.0968 31.049C34.9899 27.1317 34.9702 20.8 31.0529 16.907Z" fill="#09425A"/>
<path fill-rule="evenodd" clip-rule="evenodd" d="M9.2929 9.29289C9.68342 8.90237 10.3165 8.90237 10.7071 9.29289L38.7071 37.2929C39.0976 37.6834 39.0976 38.3166 38.7071 38.7071C38.3165 39.0976 37.6834 39.0976 37.2928 38.7071L9.2929 10.7071C8.90237 10.3166 8.90237 9.68342 9.2929 9.29289Z" fill="#09425A"/>
<path fill-rule="evenodd" clip-rule="evenodd" d="M29.4145 21.4129C29.0525 21.7756 28.552 22 27.999 22C27.7949 22 27.5978 21.9694 27.4123 21.9125C28.3627 23.4635 28.1574 25.519 26.8058 26.85L28.2092 28.275C30.0821 26.4305 30.4876 23.6587 29.4145 21.4129ZM26.5861 18.5845C24.3713 17.5267 21.6389 17.9033 19.7891 19.725L21.1924 21.15C22.5288 19.8339 24.5561 19.6492 26.0865 20.5867C26.0296 20.4012 25.999 20.2042 25.999 20C25.999 19.4471 26.2234 18.9466 26.5861 18.5845Z" fill="#09425A"/>
<path fill-rule="evenodd" clip-rule="evenodd" d="M28 19C27.4477 19 27 19.4477 27 20C27 20.5523 27.4477 21 28 21C28.5522 21 29 20.5523 29 20C29 19.4477 28.5522 19 28 19ZM25 20C25 18.3431 26.3431 17 28 17C29.6568 17 31 18.3431 31 20C31 21.6569 29.6568 23 28 23C26.3431 23 25 21.6569 25 20Z" fill="#09425A"/>
<path fill-rule="evenodd" clip-rule="evenodd" d="M12 16C12 15.4477 12.4477 15 13 15H16C16.5522 15 17 15.4477 17 16C17 16.5523 16.5522 17 16 17H13C12.4477 17 12 16.5523 12 16Z" fill="#09425A"/>
<path fill-rule="evenodd" clip-rule="evenodd" d="M7 28C7 27.4477 7.44771 27 8 27H28C28.5522 27 29 27.4477 29 28C29 28.5523 28.5522 29 28 29H8C7.44771 29 7 28.5523 7 28Z" fill="#09425A"/>
<path fill-rule="evenodd" clip-rule="evenodd" d="M12 32C12 31.4477 12.4477 31 13 31H32C32.5522 31 33 31.4477 33 32C33 32.5523 32.5522 33 32 33H13C12.4477 33 12 32.5523 12 32Z" fill="#09425A"/>
<path fill-rule="evenodd" clip-rule="evenodd" d="M7 20C7 19.4477 7.44771 19 8 19H20C20.5522 19 21 19.4477 21 20C21 20.5523 20.5522 21 20 21H8C7.44771 21 7 20.5523 7 20Z" fill="#09425A"/>
<path fill-rule="evenodd" clip-rule="evenodd" d="M5 24C5 23.4477 5.44771 23 6 23H24C24.5522 23 25 23.4477 25 24C25 24.5523 24.5522 25 24 25H5.99999C5.44771 25 5 24.5523 5 24Z" fill="#09425A"/>
</svg>
