<svg width="48" height="48" viewBox="0 0 48 48" fill="none" xmlns="http://www.w3.org/2000/svg">
<path d="M24 5.99976C14.0589 5.99976 6 14.0586 6 23.9998C6 33.9409 14.0589 41.9998 24 41.9998C33.9411 41.9998 42 33.9409 42 23.9998C42 22.2014 41.7363 20.4647 41.2454 18.8261L39.3293 19.401C39.7656 20.8575 40 22.4012 40 23.9998C40 32.8363 32.8366 39.9998 24 39.9998C15.1634 39.9998 8 32.8363 8 23.9998C8 15.1632 15.1634 7.99976 24 7.99976V5.99976Z" fill="#09425A"/>
<path d="M18.1654 15.3175C17.8893 14.8392 18.0532 14.2276 18.5315 13.9515L21.2 12.4108C21.528 12.2215 21.9349 12.2337 22.2509 12.4424C22.567 12.6511 22.7381 13.0204 22.6928 13.3965L22.2409 17.1468L23.5109 16.4136C23.9892 16.1374 24.6008 16.3013 24.877 16.7796C25.1531 17.2579 24.9892 17.8695 24.5109 18.1456L21.5089 19.8789C21.1809 20.0683 20.774 20.0561 20.4579 19.8474C20.1418 19.6387 19.9708 19.2693 20.0161 18.8932L20.4679 15.1429L19.5315 15.6836C19.0532 15.9597 18.4416 15.7958 18.1654 15.3175Z" fill="#09425A"/>
<path d="M26.5228 8.06914C25.9893 8.21208 25.6727 8.76042 25.8156 9.29389C25.9586 9.82735 26.5069 10.1439 27.0404 10.0009L28.9722 9.48336L26.9235 14.5875C26.7824 14.939 26.852 15.3401 27.1033 15.6235C27.3546 15.9069 27.7445 16.0239 28.1103 15.9259L32.457 14.7612C32.9905 14.6183 33.3071 14.0699 33.1641 13.5365C33.0212 13.003 32.4728 12.6864 31.9394 12.8294L29.5246 13.4764L31.5733 8.37229C31.7144 8.02078 31.6448 7.61972 31.3935 7.33632C31.1422 7.05292 30.7523 6.93583 30.3865 7.03387L26.5228 8.06914Z" fill="#09425A"/>
<path d="M35.5556 6.99976C35.5556 6.44747 36.0033 5.99976 36.5556 5.99976H41C41.3635 5.99976 41.6984 6.19703 41.8746 6.51499C42.0509 6.83294 42.0407 7.22149 41.848 7.52975L37.8042 13.9998H41C41.5523 13.9998 42 14.4475 42 14.9998C42 15.552 41.5523 15.9998 41 15.9998H36C35.6365 15.9998 35.3016 15.8025 35.1254 15.4845C34.9491 15.1666 34.9593 14.778 35.152 14.4698L39.1958 7.99976H36.5556C36.0033 7.99976 35.5556 7.55204 35.5556 6.99976Z" fill="#09425A"/>
<path d="M14.4009 28.6483C13.6279 28.4026 12.9613 27.8487 12.8854 27.1053C12.8702 26.9565 12.9225 26.8086 13.0279 26.7024C13.1333 26.5962 13.2807 26.5427 13.4296 26.5567C15.3607 26.7382 17.2112 25.8088 18.5046 23.6973C18.5938 23.5518 18.7511 23.4617 18.9218 23.4586C19.0925 23.4555 19.253 23.5397 19.3475 23.6819C19.7496 24.2872 19.7896 25.2388 19.5 26.1067C19.2003 27.0051 18.5239 27.902 17.368 28.4022C16.2562 28.8832 15.2086 28.9051 14.4009 28.6483Z" fill="#09425A"/>
<path d="M31.7391 24.0035C32.2857 23.4042 32.586 22.5913 32.28 21.9095C32.2187 21.773 32.0996 21.6711 31.9552 21.6318C31.8108 21.5925 31.6564 21.6199 31.5344 21.7065C29.9528 22.8292 27.8856 22.9496 25.7097 21.7677C25.5596 21.6862 25.3784 21.6869 25.229 21.7696C25.0796 21.8522 24.9827 22.0054 24.972 22.1758C24.9264 22.9011 25.3675 23.7451 26.0523 24.352C26.761 24.9802 27.7953 25.4187 29.0464 25.2739C30.2498 25.1346 31.168 24.6298 31.7391 24.0035Z" fill="#09425A"/>
<path fill-rule="evenodd" clip-rule="evenodd" d="M32.4498 31.8547C30.1989 28.7705 26.8631 27.14 23.7427 27.9761C20.6223 28.8122 18.5487 31.8922 18.1415 35.6886C18.0269 36.7575 19.0647 37.5118 20.1031 37.2336L31.5235 34.1735C32.5619 33.8952 33.0835 32.7231 32.4498 31.8547ZM24.2604 29.908C26.1537 29.4007 28.4753 30.2138 30.3491 32.4176L20.2422 35.1257C20.7631 32.2803 22.3671 30.4153 24.2604 29.908Z" fill="#09425A"/>
</svg>
