<svg width="38" height="38" viewBox="0 0 38 38" fill="none" xmlns="http://www.w3.org/2000/svg">
<path d="M27.5838 0H27.9504C30.0917 0.0534375 32.2106 0.787461 33.9132 2.09C35.7872 3.50461 37.1558 5.57531 37.7043 7.85902C37.8698 8.50695 37.9403 9.1727 37.9974 9.83695V10.3943C37.9321 10.8077 37.5313 11.1395 37.1083 11.0749C36.7001 11.0348 36.3913 10.6437 36.4129 10.2407C36.4129 7.77887 35.2951 5.35117 33.4352 3.74063C31.8833 2.3698 29.8297 1.58828 27.7582 1.58383C27.3537 1.60906 26.9641 1.2966 26.9225 0.889883C26.8572 0.472031 27.1793 0.0786719 27.5838 0Z" fill="#09425A"/>
<path d="M17.6923 4.84718C18.3313 4.58148 19.0809 4.62601 19.6947 4.93921C21.0662 5.63019 22.3881 6.42136 23.6431 7.30679C27.3363 9.89703 30.3896 13.3705 32.5457 17.3293C32.7817 17.7865 33.0607 18.2266 33.2225 18.7172C33.5439 19.7162 33.1097 20.8977 32.2095 21.4403C31.733 21.7468 31.1563 21.7913 30.6167 21.9108C28.8013 22.2671 26.9874 22.6278 25.1713 22.9788C25.0466 23.0011 24.9279 23.0478 24.8262 23.1228C19.6836 26.7885 14.5409 30.4549 9.39609 34.1161C8.10766 35.0446 6.26406 35.0616 4.94816 34.1792C3.87496 35.2375 2.81512 36.3107 1.74637 37.3736C1.49625 37.614 1.27285 37.9213 0.913633 38H0.702852C0.356992 37.951 0.0794141 37.6816 0 37.3446V37.1294C0.0319141 36.9401 0.115039 36.7598 0.255313 36.6262C1.44207 35.4335 2.63848 34.2512 3.82152 33.054C3.14242 32.0268 2.97617 30.6805 3.40441 29.5234C3.64266 28.8332 4.13324 28.2788 4.53773 27.6843C7.91395 22.9484 11.2894 18.2118 14.6664 13.4766C14.7933 13.2866 14.964 13.1129 15.01 12.8821C15.4212 10.7847 15.8323 8.68726 16.2472 6.58984C16.3905 5.81203 16.9516 5.12921 17.6923 4.84718ZM17.8036 6.89265C17.3939 8.95445 16.9931 11.0185 16.5842 13.081C17.3293 13.8529 18.099 14.6003 18.8538 15.3625C20.8785 17.3798 22.8883 19.4111 24.9212 21.4187C26.977 21.0083 29.0366 20.6142 31.0917 20.2008C31.6135 20.1325 31.9029 19.4905 31.6543 19.04C30.2419 16.2257 28.3805 13.631 26.1257 11.4296C24.1033 9.448 21.7691 7.79144 19.2546 6.49335C19.0579 6.3939 18.8605 6.27292 18.6348 6.26105C18.2511 6.22246 17.863 6.50746 17.8036 6.89265ZM11.1632 21.1352C11.5878 21.5464 12.0019 21.968 12.4198 22.3858C12.6565 22.6114 12.733 22.9862 12.5934 23.2839C12.4517 23.6126 12.0665 23.8108 11.7162 23.7314C11.5195 23.698 11.3599 23.5674 11.2248 23.4293C10.8923 23.0953 10.5598 22.7628 10.2266 22.4303C8.55371 24.7794 6.87934 27.1262 5.2057 29.4744C4.77301 30.0593 4.63867 30.8468 4.84723 31.5429C5.13 32.5568 6.14902 33.2989 7.20219 33.2477C7.81301 33.2448 8.36668 32.9449 8.83352 32.5753C13.6978 29.1093 18.5621 25.6433 23.4249 22.1758C20.897 19.6405 18.3595 17.1148 15.8331 14.578C14.2693 16.7585 12.7055 18.9398 11.1632 21.1352Z" fill="#09425A"/>
<path d="M27.5524 4.76777C29.6699 4.64531 31.7577 5.94042 32.6772 7.83894C33.0587 8.60784 33.2606 9.46878 33.2472 10.3275C33.2398 10.7194 32.8984 11.0637 32.508 11.0801C32.0761 11.1179 31.6701 10.7431 31.6708 10.3104C31.6575 9.923 31.6167 9.53335 31.5001 9.16151C31.0897 7.74023 29.8198 6.61433 28.3562 6.38945C27.9391 6.29667 27.4151 6.43546 27.1116 6.0562C26.7145 5.63464 26.9787 4.85683 27.5524 4.76777Z" fill="#09425A"/>
</svg>
