<svg width="63" height="56" viewBox="0 0 63 56" fill="none" xmlns="http://www.w3.org/2000/svg">
<path fill-rule="evenodd" clip-rule="evenodd" d="M33.9133 0.0830026C33.7756 0.140929 33.5222 0.339731 33.3501 0.524771L33.0373 0.86132V3.97659V7.09199L33.4464 7.50098C33.834 7.88858 33.9109 7.91222 34.9168 7.95413L35.9781 7.99817V9.70757V11.417L34.8205 11.7102C32.037 12.4154 28.5227 14.1588 26.5413 15.8174L26.1772 16.1222L25.1527 15.1032C24.2875 14.2427 24.0495 14.0738 23.6214 14.0164C22.6598 13.8874 21.8718 14.6751 22.0008 15.6363C22.0578 16.0612 22.2251 16.3002 23.0379 17.1177C23.9185 18.0032 23.9908 18.1128 23.8294 18.3171C23.7316 18.4408 23.3689 18.8804 23.0231 19.2939C21.5045 21.1103 19.8892 24.0518 19.1063 26.4265C16.6062 34.0098 18.2989 42.2998 23.5821 48.3471C26.6757 51.8881 31.121 54.5031 35.7307 55.4935C43.2323 57.1054 50.9833 54.8163 56.3811 49.3949C62.4325 43.3171 64.5299 34.5247 61.86 26.4265C61.0771 24.0518 59.4618 21.1103 57.9432 19.2939C57.5975 18.8804 57.2347 18.4408 57.1369 18.3171C56.9755 18.1128 57.0478 18.0032 57.9285 17.1177C58.7413 16.3002 58.9086 16.0612 58.9655 15.6363C59.0945 14.6751 58.3065 13.8874 57.3449 14.0164C56.9173 14.0737 56.6792 14.2424 55.822 15.0949L54.8059 16.1054L54.1207 15.5861C51.7695 13.8042 48.8929 12.4062 46.1458 11.7102L44.9882 11.417V9.70757V7.99817L46.0496 7.95413C47.0555 7.91222 47.1323 7.88858 47.52 7.50098L47.9291 7.09199V3.96896V0.845932L47.52 0.436943L47.111 0.0279536L40.6372 0.00293137C37.0767 -0.0108309 34.0509 0.0252012 33.9133 0.0830026ZM44.9882 3.96896V4.96985H40.4832H35.9781V3.96896V2.96807H40.4832H44.9882V3.96896ZM41.9849 9.47386V10.9752H40.4832H38.9815V9.47386V7.97253H40.4832H41.9849V9.47386ZM43.0109 14.1647C46.3579 14.6068 49.2763 15.7857 52.1488 17.8563C53.1757 18.5966 55.2844 20.6994 56.0865 21.7832C61.2914 28.8156 61.2908 38.1894 56.085 45.2073C55.2646 46.3133 53.3043 48.2732 52.198 49.0934C45.3463 54.1734 36.1291 54.3014 29.2205 49.4124C27.8767 48.4616 25.6838 46.3325 24.8405 45.1601C22.7642 42.2733 21.5901 39.3681 21.148 36.0224C20.4822 30.9846 21.744 26.1354 24.8405 21.8304C25.6837 20.6581 27.8767 18.529 29.2205 17.578C33.2211 14.7467 38.1609 13.5241 43.0109 14.1647ZM38.3101 17.1139C34.6796 17.6165 31.4875 19.2167 28.8444 21.8593C26.4232 24.2799 24.975 26.9658 24.2571 30.3675C23.9448 31.8475 23.9448 35.143 24.2571 36.623C24.975 40.0246 26.4231 42.7104 28.8444 45.1314C31.2455 47.5321 33.9855 49.0088 37.3546 49.7179C38.9975 50.0637 42.1443 50.0323 43.8518 49.6533C47.777 48.7817 51.0925 46.717 53.4245 43.6918C55.1852 41.4075 56.0365 39.6028 56.645 36.8631C57.0246 35.1545 57.0556 32.0089 56.7092 30.3675C55.9913 26.9658 54.5432 24.2799 52.1219 21.8593C49.7143 19.4521 46.9889 17.9784 43.6743 17.2913C42.4847 17.0447 39.5185 16.9465 38.3101 17.1139ZM39.0098 27.1122L39.044 34.1162L39.4531 34.525L39.8621 34.934L46.8677 34.9683L53.8733 35.0027V35.2963C53.8733 36.0274 53.2025 38.1508 52.5649 39.438C51.7678 41.0477 50.9669 42.1454 49.7576 43.286C48.1083 44.8415 46.0217 45.9952 43.7715 46.5959C42.6872 46.8854 42.3131 46.9226 40.4832 46.9226C38.6522 46.9226 38.2767 46.8852 37.1669 46.5927C35.6836 46.2018 33.5116 45.1546 32.3374 44.2643C29.2232 41.9031 27.2327 38.1601 27.0096 34.2459C26.6349 27.6736 31.0224 21.868 37.5423 20.3088C37.9553 20.2099 38.4467 20.1245 38.6343 20.1187L38.9753 20.1083L39.0098 27.1122ZM43.7868 20.4147C45.977 20.9702 48.0968 22.1381 49.7576 23.7045C50.9669 24.845 51.7678 25.9428 52.5649 27.5525C53.2036 28.842 53.8733 30.9634 53.8733 31.6971V31.9939H47.9291H41.9849V26.0511V20.1083H42.2817C42.4449 20.1083 43.1223 20.2462 43.7868 20.4147ZM5.88163 23.1032C5.32939 23.336 5.00565 23.8504 5.00565 24.4949C5.00565 25.0205 5.06396 25.1663 5.41473 25.517L5.82382 25.926H11.4504H17.077L17.4861 25.517C17.8382 25.165 17.8952 25.0215 17.8952 24.4872C17.8952 23.953 17.8381 23.8095 17.4862 23.4574L17.0771 23.0484L11.6046 23.0232C8.59457 23.0092 6.01929 23.0453 5.88163 23.1032ZM0.875988 29.109C0.324241 29.3407 0 29.8556 0 30.5002C0 31.0258 0.0583158 31.1717 0.409086 31.5224L0.818173 31.9314H7.94646H15.0748L15.4838 31.5224C15.836 31.1703 15.8929 31.0268 15.8929 30.4926C15.8929 29.9583 15.8359 29.8148 15.4838 29.4628L15.0749 29.0538L8.10051 29.0289C4.26469 29.0151 1.01364 29.0512 0.875988 29.109ZM3.87938 35.1139C3.32713 35.3466 3.00339 35.8611 3.00339 36.5056C3.00339 37.0311 3.0617 37.177 3.41247 37.5277L3.82156 37.9367H9.44816H15.0748L15.4838 37.5277C15.836 37.1756 15.8929 37.0321 15.8929 36.4979C15.8929 35.9637 15.8359 35.8202 15.484 35.4681L15.0749 35.0591L9.60233 35.0339C6.59231 35.0199 4.01703 35.056 3.87938 35.1139ZM7.88389 41.1187C7.33102 41.353 7.00791 41.8666 7.00791 42.5109C7.00791 43.0365 7.06622 43.1824 7.41699 43.5331L7.82608 43.942H11.951H16.0759L16.485 43.5331C16.8371 43.181 16.8941 43.0375 16.8941 42.5033C16.8941 41.969 16.837 41.8255 16.4851 41.4735L16.0761 41.0645L12.1052 41.0386C9.92107 41.0243 8.02155 41.0604 7.88389 41.1187Z" fill="#09425A"/>
</svg>
