<svg width="1181" height="442" viewBox="0 0 1181 442" fill="none" xmlns="http://www.w3.org/2000/svg">
<path d="M1 374.895L12.1036 339.895C23.2072 304.895 44.405 234.895 66.6122 199.895C88.8193 164.895 110.017 164.895 132.224 182.895C153.422 199.895 175.629 234.895 197.836 252.895C219.034 269.895 241.241 269.895 263.449 304.895C284.646 339.895 306.854 409.895 328.051 421.895C350.259 432.895 372.466 386.895 393.664 374.895C415.871 362.895 438.078 386.895 459.276 403.895C481.483 421.895 502.681 432.895 524.888 403.895C547.095 374.895 568.293 304.895 590.5 275.895C612.707 246.895 633.905 257.895 656.112 257.895C678.319 257.895 699.517 246.895 721.724 222.895C742.922 199.895 765.129 164.895 787.336 193.895C808.534 222.895 830.741 316.895 852.949 327.895C874.146 339.895 896.354 269.895 917.551 281.895C939.759 292.895 961.966 386.895 983.163 421.895C1005.37 456.895 1027.58 432.895 1048.78 427.895C1070.98 421.895 1092.18 432.895 1114.39 403.895C1136.59 374.895 1157.79 304.895 1168.9 269.895L1180 234.895" stroke="#36A693" stroke-opacity="0.05" stroke-width="2"/>
<path d="M1 343.895L12.1036 308.895C23.2072 273.895 44.405 203.895 66.6122 168.895C88.8193 133.895 110.017 133.895 132.224 151.895C153.422 168.895 175.629 203.895 197.836 221.895C219.034 238.895 241.241 238.895 263.449 273.895C284.646 308.895 306.854 378.895 328.051 390.895C350.259 401.895 372.466 355.895 393.664 343.895C415.871 331.895 438.078 355.895 459.276 372.895C481.483 390.895 502.681 401.895 524.888 372.895C547.095 343.895 568.293 273.895 590.5 244.895C612.707 215.895 633.905 226.895 656.112 226.895C678.319 226.895 699.517 215.895 721.724 191.895C742.922 168.895 765.129 133.895 787.336 162.895C808.534 191.895 830.741 285.895 852.949 296.895C874.146 308.895 896.354 238.895 917.551 250.895C939.759 261.895 961.966 355.895 983.163 390.895C1005.37 425.895 1027.58 401.895 1048.78 396.895C1070.98 390.895 1092.18 401.895 1114.39 372.895C1136.59 343.895 1157.79 273.895 1168.9 238.895L1180 203.895" stroke="#36A693" stroke-opacity="0.05" stroke-width="2"/>
<path d="M1 300.895L12.1036 265.895C23.2072 230.895 44.405 160.895 66.6122 125.895C88.8193 90.8953 110.017 90.8953 132.224 108.895C153.422 125.895 175.629 160.895 197.836 178.895C219.034 195.895 241.241 195.895 263.449 230.895C284.646 265.895 306.854 335.895 328.051 347.895C350.259 358.895 372.466 312.895 393.664 300.895C415.871 288.895 438.078 312.895 459.276 329.895C481.483 347.895 502.681 358.895 524.888 329.895C547.095 300.895 568.293 230.895 590.5 201.895C612.707 172.895 633.905 183.895 656.112 183.895C678.319 183.895 699.517 172.895 721.724 148.895C742.922 125.895 765.129 90.8953 787.336 119.895C808.534 148.895 830.741 242.895 852.949 253.895C874.146 265.895 896.354 195.895 917.551 207.895C939.759 218.895 961.966 312.895 983.163 347.895C1005.37 382.895 1027.58 358.895 1048.78 353.895C1070.98 347.895 1092.18 358.895 1114.39 329.895C1136.59 300.895 1157.79 230.895 1168.9 195.895L1180 160.895" stroke="#36A693" stroke-opacity="0.05" stroke-width="2"/>
<path d="M1 277.895L12.1036 242.895C23.2072 207.895 44.405 137.895 66.6122 102.895C88.8193 67.8953 110.017 67.8953 132.224 85.8953C153.422 102.895 175.629 137.895 197.836 155.895C219.034 172.895 241.241 172.895 263.449 207.895C284.646 242.895 306.854 312.895 328.051 324.895C350.259 335.895 372.466 289.895 393.664 277.895C415.871 265.895 438.078 289.895 459.276 306.895C481.483 324.895 502.681 335.895 524.888 306.895C547.095 277.895 568.293 207.895 590.5 178.895C612.707 149.895 633.905 160.895 656.112 160.895C678.319 160.895 699.517 149.895 721.724 125.895C742.922 102.895 765.129 67.8953 787.336 96.8953C808.534 125.895 830.741 219.895 852.949 230.895C874.146 242.895 896.354 172.895 917.551 184.895C939.759 195.895 961.966 289.895 983.163 324.895C1005.37 359.895 1027.58 335.895 1048.78 330.895C1070.98 324.895 1092.18 335.895 1114.39 306.895C1136.59 277.895 1157.79 207.895 1168.9 172.895L1180 137.895" stroke="#36A693" stroke-opacity="0.05" stroke-width="2"/>
<path d="M1 244.895L12.1036 209.895C23.2072 174.895 44.405 104.895 66.6122 69.8953C88.8193 34.8953 110.017 34.8953 132.224 52.8953C153.422 69.8953 175.629 104.895 197.836 122.895C219.034 139.895 241.241 139.895 263.449 174.895C284.646 209.895 306.854 279.895 328.051 291.895C350.259 302.895 372.466 256.895 393.664 244.895C415.871 232.895 438.078 256.895 459.276 273.895C481.483 291.895 502.681 302.895 524.888 273.895C547.095 244.895 568.293 174.895 590.5 145.895C612.707 116.895 633.905 127.895 656.112 127.895C678.319 127.895 699.517 116.895 721.724 92.8953C742.922 69.8953 765.129 34.8953 787.336 63.8953C808.534 92.8953 830.741 186.895 852.949 197.895C874.146 209.895 896.354 139.895 917.551 151.895C939.759 162.895 961.966 256.895 983.163 291.895C1005.37 326.895 1027.58 302.895 1048.78 297.895C1070.98 291.895 1092.18 302.895 1114.39 273.895C1136.59 244.895 1157.79 174.895 1168.9 139.895L1180 104.895" stroke="#36A693" stroke-opacity="0.05" stroke-width="2"/>
<path d="M1 220.895L12.1036 185.895C23.2072 150.895 44.405 80.8953 66.6122 45.8953C88.8193 10.8953 110.017 10.8953 132.224 28.8953C153.422 45.8953 175.629 80.8953 197.836 98.8953C219.034 115.895 241.241 115.895 263.449 150.895C284.646 185.895 306.854 255.895 328.051 267.895C350.259 278.895 372.466 232.895 393.664 220.895C415.871 208.895 438.078 232.895 459.276 249.895C481.483 267.895 502.681 278.895 524.888 249.895C547.095 220.895 568.293 150.895 590.5 121.895C612.707 92.8953 633.905 103.895 656.112 103.895C678.319 103.895 699.517 92.8953 721.724 68.8953C742.922 45.8953 765.129 10.8953 787.336 39.8953C808.534 68.8953 830.741 162.895 852.949 173.895C874.146 185.895 896.354 115.895 917.551 127.895C939.759 138.895 961.966 232.895 983.163 267.895C1005.37 302.895 1027.58 278.895 1048.78 273.895C1070.98 267.895 1092.18 278.895 1114.39 249.895C1136.59 220.895 1157.79 150.895 1168.9 115.895L1180 80.8953" stroke="#36A693" stroke-opacity="0.05" stroke-width="2"/>
<path d="M1 204.895L12.1036 169.895C23.2072 134.895 44.405 64.8953 66.6122 29.8953C88.8193 -5.10468 110.017 -5.10467 132.224 12.8953C153.422 29.8953 175.629 64.8953 197.836 82.8953C219.034 99.8953 241.241 99.8953 263.449 134.895C284.646 169.895 306.854 239.895 328.051 251.895C350.259 262.895 372.466 216.895 393.664 204.895C415.871 192.895 438.078 216.895 459.276 233.895C481.483 251.895 502.681 262.895 524.888 233.895C547.095 204.895 568.293 134.895 590.5 105.895C612.707 76.8953 633.905 87.8953 656.112 87.8953C678.319 87.8953 699.517 76.8953 721.724 52.8953C742.922 29.8953 765.129 -5.10468 787.336 23.8953C808.534 52.8953 830.741 146.895 852.949 157.895C874.146 169.895 896.354 99.8953 917.551 111.895C939.759 122.895 961.966 216.895 983.163 251.895C1005.37 286.895 1027.58 262.895 1048.78 257.895C1070.98 251.895 1092.18 262.895 1114.39 233.895C1136.59 204.895 1157.79 134.895 1168.9 99.8953L1180 64.8953" stroke="#36A693" stroke-opacity="0.05" stroke-width="2"/>
</svg>
